<?xml version="1.0" standalone="no"?>
<!DOCTYPE svg PUBLIC "-//W3C//DTD SVG 1.1//EN" "http://www.w3.org/Graphics/SVG/1.1/DTD/svg11.dtd" >
<!--
2013-9-30: Created.
-->
<svg>
<metadata>
Created by iconfont
</metadata>
<defs>

<font id="iconfont" horiz-adv-x="1024" >
  <font-face
    font-family="iconfont"
    font-weight="500"
    font-stretch="normal"
    units-per-em="1024"
    ascent="896"
    descent="-128"
  />
    <missing-glyph />
    
    <glyph glyph-name="shiyong" unicode="&#58881;" d="M511.991302 826.546162c-244.190535 0-442.114326-197.966771-442.114326-442.150142 0-244.181325 197.923792-442.113303 442.114326-442.113303 244.199745 0 442.131723 197.933001 442.131723 442.113303C954.123025 628.579391 756.191046 826.546162 511.991302 826.546162M511.991302-13.207556999999952c-219.597417 0-397.603577 178.007183-397.603577 397.603577 0 219.632209 178.007183 397.639392 397.603577 397.639392 219.596394 0 397.620973-178.008206 397.620973-397.639392C909.612275 164.799626 731.587696-13.207556999999952 511.991302-13.207556999999952M333.497025 489.031125c4.616134-12.622482 17.647939-19.473517 29.147854-15.300474 11.467169 4.173043 17.074887 17.803481 12.458753 30.425963l-20.509103 54.456263c-4.606925 12.622482-17.656125 19.473517-29.139667 15.301498-11.501962-4.174066-17.074887-17.84032-12.466939-30.461779L333.497025 489.031125zM661.640624 515.076314c8.658194-10.293437 23.269983-12.275581 32.617885-4.41659 9.371438 7.860015 9.953699 22.569018 1.303692 32.862455l-25.39539 26.497491c-8.665357 10.293437-23.2444 12.274558-32.634258 4.415566-9.361205-7.858992-9.910721-22.569018-1.295506-32.896224L661.640624 515.076314zM721.22365 220.78573100000006c-10.603499 6.120394-24.636097 1.635243-31.363312-10.014074l-7.034207-10.536984c-25.479301 32.131815-68.225871 103.34881-68.243267 240.98247l0 9.146311 63.811328 0c13.43908 0 24.357757 9.910721 24.357757 22.116717 0 12.239765-10.918677 22.150486-24.357757 22.150486l-63.934125 0c-0.148379 40.372499-0.400113 80.988546-0.400113 80.988546 0 13.492292-9.874905 24.3772-22.12388 24.3772-12.214183 0-22.115694-10.884908-22.115694-24.3772 0 0 0.270153-40.511669 0.408299-80.988546L431.002756 494.630656c-13.456477 0-24.341385-9.910721-24.341385-22.150486 0-12.205996 10.884908-22.116717 24.341385-22.116717l139.303696 0c0-3.859911 0-7.580652-0.024559-10.95347-0.460488-179.851181 76.344782-272.837992 91.663676-283.928584 8.058536-5.843078 27.54024-19.195178 40.336684-5.009084 1.64343 1.843998 2.765997 3.65218 3.617387 5.460362 0.591471 0.800225 1.38965 1.322112 1.886977 2.225691l20.438495 30.461779C734.935953 200.270489 731.822033 214.702176 721.22365 220.78573100000006M376.721479 204.30231500000002L376.721479 409.572422c0 10.676154-6.28617 19.61371-14.935154 22.950711-3.930519 2.190899-8.511861 3.478218-13.458523 3.478218l-49.777707 0c-14.283308 0-25.854854-10.502192-25.854854-23.472598 0-13.005198 11.570523-23.50739 25.854854-23.50739l33.895995 0L332.44609 165.53026599999998c0-13.456477 9.901511-24.375154 22.150486-24.375154 2.095731 0 4.060479 0.416486 5.998621 1.007957 4.573155 0.661056 9.094122 2.190899 13.031804 5.459339l29.592992 21.662369c10.30981 8.66024 12.317537 23.230074 4.432962 32.618908C400.280034 210.73584100000005 386.857327 211.431689 376.721479 204.30231500000002M554.640658 229.06325500000003l-40.945551-3.304256L513.695107 350.42123000000004l15.134699 0.141216c13.4575 0 24.367991 9.909697 24.367991 22.11467 0 12.240789-10.910491 22.152533-24.367991 22.152533l-74.54581-0.62524c-13.46671 0-24.359804-9.912767-24.359804-22.152533 0-12.204973 10.893094-22.11467 24.359804-22.11467l15.134699 0.13917 0-127.862109-17.073864-1.356904c-13.414521-1.182942-23.438828-11.998265-22.352077-24.167422 1.069355-12.171204 12.806677-21.107737 26.193569-19.926842l102.323457 8.172123c13.386892 1.181919 23.391756 11.998265 22.323425 24.202215C579.782268 221.30761700000005 568.045969 230.21038099999998 554.640658 229.06325500000003"  horiz-adv-x="1024" />

    
    <glyph glyph-name="close" unicode="&#59004;" d="M810.65984 725.34016q18.3296 0 30.49472-12.16512t12.16512-30.49472q0-18.00192-12.32896-30.33088l-268.67712-268.32896 268.67712-268.32896q12.32896-12.32896 12.32896-30.33088 0-18.3296-12.16512-30.49472t-30.49472-12.16512q-18.00192 0-30.33088 12.32896l-268.32896 268.67712-268.32896-268.67712q-12.32896-12.32896-30.33088-12.32896-18.3296 0-30.49472 12.16512t-12.16512 30.49472q0 18.00192 12.32896 30.33088l268.67712 268.32896-268.67712 268.32896q-12.32896 12.32896-12.32896 30.33088 0 18.3296 12.16512 30.49472t30.49472 12.16512q18.00192 0 30.33088-12.32896l268.32896-268.67712 268.32896 268.67712q12.32896 12.32896 30.33088 12.32896z"  horiz-adv-x="1024" />

    
    <glyph glyph-name="yiban" unicode="&#59085;" d="M510.2592 591.0527999999999c-9.9328 0-17.92-8.0896-17.92-17.92l0-470.3232c0-9.9328 8.0896-17.92 17.92-17.92 9.9328 0 17.92 8.0896 17.92 17.92L528.1792 573.1328C528.2816 583.0656 520.192 591.0527999999999 510.2592 591.0527999999999zM510.2592 687.2064c-9.9328 0-17.92-8.0896-17.92-17.92l0-12.3904c0-9.9328 8.0896-17.92 17.92-17.92 9.9328 0 17.92 8.0896 17.92 17.92l0 12.3904C528.2816 679.1168 520.192 687.2064 510.2592 687.2064zM967.4752 579.1744c-24.9856 59.0848-60.7232 112.128-106.2912 157.696-45.568 45.568-98.6112 81.3056-157.696 106.2912-61.1328 25.9072-126.1568 39.0144-193.1264 39.0144-66.9696 0-131.9936-13.1072-193.1264-39.0144C258.048 818.176 205.0048 782.4384 159.4368 736.8704c-45.568-45.568-81.3056-98.6112-106.2912-157.696C27.2384 517.9392 14.1312 453.0176 14.1312 386.048c0-66.9696 13.1072-131.9936 39.0144-193.1264 24.9856-59.0848 60.7232-112.128 106.2912-157.696 45.568-45.568 98.6112-81.3056 157.696-106.2912 61.1328-25.9072 126.1568-39.0144 193.1264-39.0144 66.9696 0 131.9936 13.1072 193.1264 39.0144 59.0848 24.9856 112.128 60.7232 157.696 106.2912 45.568 45.568 81.3056 98.6112 106.2912 157.696 25.9072 61.1328 39.0144 126.1568 39.0144 193.1264C1006.3872 453.0176 993.28 517.9392 967.4752 579.1744zM934.2976 206.84799999999996c-23.1424-54.784-56.32-104.0384-98.6112-146.3296s-91.4432-75.4688-146.3296-98.6112c-56.7296-23.9616-117.0432-36.1472-179.0976-36.1472s-122.368 12.1856-179.0976 36.1472c-54.784 23.1424-104.0384 56.32-146.3296 98.6112S109.3632 152.06399999999996 86.2208 206.84799999999996C62.2592 263.57759999999996 50.0736 323.8912 50.0736 386.048c0 62.1568 12.1856 122.368 36.1472 179.0976 23.1424 54.784 56.32 104.0384 98.6112 146.3296s91.4432 75.4688 146.3296 98.6112c56.7296 23.9616 117.0432 36.1472 179.0976 36.1472s122.368-12.1856 179.0976-36.1472c54.784-23.1424 104.0384-56.32 146.3296-98.6112s75.4688-91.4432 98.6112-146.3296c23.9616-56.7296 36.1472-117.0432 36.1472-179.0976C970.5472 323.8912 958.3616 263.57759999999996 934.2976 206.84799999999996z"  horiz-adv-x="1024" />

    
    <glyph glyph-name="mulu" unicode="&#59052;" d="M107.2 683.2m-67.2 0a4.2 4.2 0 1 1 134.4 0 4.2 4.2 0 1 1-134.4 0ZM980.8 750.4L297.6 750.4c-9.6 0-16-8-16-16l0-102.4c0-9.6 8-16 16-16l683.2 0c9.6 0 16 8 16 16l0 102.4C996.8 744 988.8 750.4 980.8 750.4zM96 398.4m-67.2 0a4.2 4.2 0 1 1 134.4 0 4.2 4.2 0 1 1-134.4 0ZM968 465.6L284.8 465.6c-9.6 0-16-8-16-16l0-102.4c0-9.6 8-16 16-16l683.2 0c9.6 0 16 8 16 16l0 102.4C984 457.6 977.6 465.6 968 465.6zM96 100.79999999999995m-67.2 0a4.2 4.2 0 1 1 134.4 0 4.2 4.2 0 1 1-134.4 0ZM968 168L284.8 168c-9.6 0-16-8-16-16l0-102.4c0-9.6 8-16 16-16l683.2 0c9.6 0 16 8 16 16l0 102.4C984 160 977.6 168 968 168z"  horiz-adv-x="1024" />

    
    <glyph glyph-name="yuandian" unicode="&#58941;" d="M510.642073 384.845251m-191.093223 0a186.741 186.741 0 1 1 382.186446 0 186.741 186.741 0 1 1-382.186446 0Z"  horiz-adv-x="1024" />

    
    <glyph glyph-name="dizhi" unicode="&#58885;" d="M512.002558 287.740656c-105.96438 0-192.141088 86.173638-192.141088 192.132902 0 105.96438 86.175685 192.141088 192.141088 192.141088 105.960287 0 192.134949-86.176708 192.134949-192.141088C704.137507 373.913271 617.962845 287.740656 512.002558 287.740656L512.002558 287.740656zM512.002558 607.967958c-70.647013 0-128.095423-57.44841-128.095423-128.095423 0-70.640873 57.44841-128.089283 128.095423-128.089283 70.640873 0 128.089283 57.44841 128.089283 128.089283C640.091842 550.519548 582.643432 607.967958 512.002558 607.967958L512.002558 607.967958zM512.002558-64.517153c-7.945973 0-15.920598 2.946099-22.096251 8.839319-12.778024 12.230556-13.262048 32.504298-1.061169 45.281299 86.591147 90.782609 311.3624 355.838358 311.3624 490.270093 0 158.898986-129.278365 288.210098-288.206004 288.210098-158.898986 0-288.210098-129.310088-288.210098-288.210098 0-75.6694 72.595388-206.224852 204.40439-367.68722 11.209296-13.739932 9.157567-33.911344-4.548596-45.056172-13.706163-11.175527-33.911344-9.155521-45.057195 4.549619C233.36856 249.533472 159.746796 386.882654 159.746796 479.872534c0 194.22147 158.033269 352.254739 352.254739 352.254739 194.217377 0 352.250646-158.034293 352.250646-352.254739 0-187.491185-315.6521-520.403391-329.070714-534.461571C528.873808-61.185268 520.455067-64.517153 512.002558-64.517153L512.002558-64.517153zM512.002558-64.517153"  horiz-adv-x="1024" />

    
    <glyph glyph-name="yeji" unicode="&#59002;" d="M625.777778 395.377778c0 6.280533-5.097244 11.377778-11.377778 11.377778L466.488889 406.755556c-6.280533 0-11.377778-5.097244-11.377778-11.377778l0-364.088889c0-6.280533 5.097244-11.377778 11.377778-11.377778l147.911111 0c6.280533 0 11.377778 5.097244 11.377778 11.377778L625.777778 395.377778zM916.445867 563.2l-113.0496 197.176889c-5.415822 9.386667-14.290489 10.092089-19.706311 0.705422l-113.026844-198.2464C665.247289 553.4606220000001 669.684622 543.2888889999999 680.516267 543.2888889999999L716.8 543.2888889999999l0-506.311111c0-6.257778 7.918933-17.066667 14.176711-17.066667l125.155556 0C862.390044 19.911111000000005 864.711111 30.720000000000027 864.711111 36.977777999999944L864.711111 543.2888889999999l41.8816 0C917.424356 543.2888889999999 921.861689 553.8133330000001 916.445867 563.2zM185.298489 552.516267c0 44.873956 36.374756 81.248711 81.248711 81.248711s81.248711-36.374756 81.248711-81.248711c0-44.873956-36.374756-81.248711-81.248711-81.248711S185.298489 507.642311 185.298489 552.516267zM269.095822 54.044444c0-22.755556-14.142578-37.000533-35.680711-34.952533C214.641778 20.866844000000015 204.8 38.69582200000002 204.8 57.56017799999995L204.8 245.589333c0-15.451022-18.500267-27.830044-34.144711-27.830044-17.282844 0-34.121956 14.6432-34.121956 29.320533l0 70.735644 0 63.192178C136.533333 415.903289 161.985422 440.888889 196.881067 440.888889l27.830044 0 45.511111-79.644444 45.511111 79.644444 27.181511 0C377.810489 440.888889 409.6 415.903289 409.6 380.996267l0-63.192178 0-70.735644c0-14.677333-16.839111-29.320533-34.121956-29.320533-15.644444 0-34.144711 12.379022-34.144711 27.830044l0-188.029156c0-18.864356-13.0048-36.681956-31.789511-38.468267C288.005689 17.04391099999998 270.700089 31.28888900000004 270.700089 54.044444L269.095822 54.044444z"  horiz-adv-x="1024" />

    
    <glyph glyph-name="mingdan" unicode="&#58960;" d="M1010 302.20000000000005L878.6 433.8c-9 9.1-21.3 14.2-34.2 14.2L630 448c-29.8 0-54-24.1-54-53.8l0-402.4c0-29.7 24.2-53.8 54-53.8l340 0c29.8 0 54 24.1 54 53.8L1024 268.29999999999995C1024 281 1019 293.20000000000005 1010 302.20000000000005zM960 2L640 2 640 384l197.9 0L960 261.70000000000005 960 2zM691.7 256l91.9 0c17.7 0 32 14.3 32 32s-14.3 32-32 32l-91.9 0c-17.7 0-32-14.3-32-32S674 256 691.7 256zM659.7 192c0-17.7 14.3-32 32-32l206.9 0c17.7 0 32 14.3 32 32s-14.3 32-32 32L691.7 224C674 224 659.7 209.70000000000005 659.7 192zM898.6 128L691.7 128c-17.7 0-32-14.3-32-32s14.3-32 32-32l206.9 0c17.7 0 32 14.3 32 32S916.2 128 898.6 128zM546.3-64L64-64 64 97.5c0 157.5 123.2 283.9 280.5 287.9 5 0.1 10 0.1 14.9 0 37.1-0.9 73-8.8 106.8-23.5 16.2-7 35.1 0.4 42.1 16.7 7 16.2-0.4 35.1-16.7 42.1-4.8 2.1-9.6 4-14.4 5.9 75.4 43.4 126.2 124.8 126.2 218C603.4 783.4 490.9 896 352 896S100.6 783.4 100.6 644.6c0-93.2 50.7-174.6 126.1-218-47.2-17.9-90.3-46.1-126.5-83.2C35.6 277.29999999999995 0 189.89999999999998 0 97.5l0-169.7C0-103 25-128 55.7-128l490.5 0c17.7 0 32 14.3 32 32S563.9-64 546.3-64zM164.6 644.6c0 50.1 19.5 97.1 54.9 132.5C254.9 812.5 301.9 832 352 832c50.1 0 97.1-19.5 132.5-54.9 35.4-35.4 54.9-82.5 54.9-132.5 0-50.1-19.5-97.1-54.9-132.5-35.4-35.4-82.5-54.9-132.5-54.9-50.1 0-97.1 19.5-132.5 54.9C184.1 547.4 164.6 594.5 164.6 644.6z"  horiz-adv-x="1024" />

    
    <glyph glyph-name="shoucang" unicode="&#58895;" d="M327.728136 91.69872399999997l150.60509 60.966537 33.721009 13.627369 33.721009-13.627369 150.609183-60.914348-4.484128 166.562527-0.907673 32.985252 20.663622 25.711592 96.563266 120.353089L652.842749 484.425224l-30.030967 9.081843-17.825994 25.716708-92.931552 134.033669-92.871177-134.033669-17.825994-25.716708-30.033014-9.081843-155.490354-47.120181 96.566336-120.29476 20.663622-25.711592-0.907673-32.985252L327.728136 91.69872399999997M789.940197-43.129031000000055L512.054235 69.27296899999999 234.17339-43.129031000000055l8.115841 303.886125L62.389956 484.824313l282.879696 85.667102L512.054235 811.130054l166.843936-240.638639 282.711873-85.667102L781.766027 260.756071 789.940197-43.129031000000055 789.940197-43.129031000000055 789.940197-43.129031000000055z"  horiz-adv-x="1024" />

    
    <glyph glyph-name="yuyan" unicode="&#59237;" d="M911.330758 737.919032c0 0.516042 0 1.032085 0 1.548127L911.330758 795.715774c0 17.717453-14.277171 31.994625-31.994625 31.994625-17.717453 0-31.994625-14.277171-31.994625-31.994625 0 0 0-25.802117-25.802117-25.802117l-622.69108 0c-25.802117 0-25.802117 25.802117-25.802117 25.802117 0 17.717453-14.277171 31.994625-31.994625 31.994625S109.056946 813.433227 109.056946 795.715774l0-153.952629c0-17.717453 14.277171-31.994625 31.994625-31.994625s31.994625 14.277171 31.994625 31.994625l0 0.172014c0 63.989249 63.989249 63.989249 63.989249 63.989249l152.060474 0c13.589115-1.204099 56.248614-8.944734 59.688896-57.452713l0-584.847976c-3.440282-48.507979-46.099782-56.248614-59.688896-57.452713l-37.843104 0c-17.717453 0-31.994625-14.277171-31.994625-31.994625s14.277171-31.994625 31.994625-31.994625l129.526625 0 0 0 0 0 59.172854 0 0 0 0 0 129.526625 0c17.717453 0 31.994625 14.277171 31.994625 31.994625s-14.277171 31.994625-31.994625 31.994625l-38.015118 0c-13.589115 1.204099-56.248614 8.944734-59.688896 57.452713l0 584.847976c3.440282 48.507979 46.099782 56.248614 59.688896 57.452713l151.88846 0c0 0 63.989249 0.172014 63.989249-63.989249l0-0.172014c0-17.717453 14.277171-31.994625 31.994625-31.994625s31.994625 14.277171 31.994625 31.994625l0 94.607761C911.330758 736.886948 911.330758 737.40299 911.330758 737.919032z"  horiz-adv-x="1024" />

    
    <glyph glyph-name="shuxing" unicode="&#59111;" d="M960 896L531.2 896C499.2 896 492.8 883.2 460.8 844.8L38.4 422.4c-51.2-51.2-51.2-134.4 0-185.6l326.4-326.4c51.2-51.2 134.4-51.2 185.6 0l422.4 422.4C1004.8 358.4 1024 371.20000000000005 1024 409.6L1024 832C1024 870.4 998.4 896 960 896L960 896zM556.8 6.399999999999977L512-38.39999999999998l0 0c-25.6-25.6-70.4-25.6-96 0L89.6 288C64 313.6 64 358.4 89.6 384l44.8 44.8 44.8 44.8 326.4 326.4C524.8 812.8 550.4 832 563.2 832l364.8 0C947.2 832 960 819.2 960 806.4l0-364.8 0 0c0-19.2-12.8-44.8-32-57.6l-326.4-326.4L556.8 6.399999999999977zM627.2 684.8C576 633.6 576 550.4 627.2 499.2s134.4-51.2 185.6 0c51.2 51.2 51.2 134.4 0 185.6C761.6 736 678.4 736 627.2 684.8L627.2 684.8zM768 544c-25.6-25.6-70.4-25.6-96 0s-25.6 70.4 0 96 70.4 25.6 96 0C793.6 608 793.6 569.6 768 544L768 544zM655.790931 229.80313l-294.1536 294.1536 63.35616 63.35616 294.1536-294.1536-63.35616-63.35616ZM526.319078 96.05528300000003l-294.1536 294.1536 63.35616 63.35616 294.1536-294.1536-63.35616-63.35616Z"  horiz-adv-x="1024" />

    
    <glyph glyph-name="query" unicode="&#58989;" d="M965.6 448.8L752 448.8c-14.4 0-26.4 12-26.4 26.4 0 14.4 12 26.4 26.4 26.4l213.6 0c14.4 0 26.4-12 26.4-26.4C992.8 460.8 980.8 448.8 965.6 448.8zM965.6 662.4L699.2 662.4c-14.4 0-26.4 12-26.4 26.4 0 14.4 12 26.4 26.4 26.4l267.2 0c14.4 0 26.4-12 26.4-26.4C992.8 674.4 980.8 662.4 965.6 662.4zM606.4 272.79999999999995l156.8-156.8c21.6-21.6 21.6-56.8 0-78.4-21.6-21.6-56.8-21.6-78.4 0L528 194.39999999999998c-16 16-20 39.2-12 59.2-51.2-44-117.6-72-190.4-72-162.4 0-293.6 131.2-293.6 293.6s131.2 293.6 293.6 293.6 293.6-131.2 293.6-293.6c0-72.8-28-139.2-72-190.4C567.2 292.79999999999995 590.4 288.79999999999995 606.4 272.79999999999995zM324.8 662.4c-103.2 0-187.2-84-187.2-187.2s84-187.2 187.2-187.2S512 372.79999999999995 512 476 428 662.4 324.8 662.4zM805.6 288.79999999999995l160 0c14.4 0 26.4-12 26.4-26.4 0-14.4-12-26.4-26.4-26.4l-160 0c-14.4 0-26.4 12-26.4 26.4C779.2 276.79999999999995 791.2 288.79999999999995 805.6 288.79999999999995z"  horiz-adv-x="1024" />

    
    <glyph glyph-name="biaodan" unicode="&#59340;" d="M288 384l256 0C561.92 384 576 398.08 576 416 576 433.92 561.92 448 544 448l-256 0C270.08 448 256 433.92 256 416 256 398.08 270.08 384 288 384zM768 832L192 832C121.6 832 64 774.4 64 704l0-576c0-70.4 57.6-128 128-128l576 0c70.4 0 128 57.6 128 128L896 704C896 774.4 838.4 832 768 832zM832 128c0-35.2-28.8-64-64-64L192 64c-35.2 0-64 28.8-64 64L128 704c0 35.2 28.8 64 64 64l576 0c35.2 0 64-28.8 64-64L832 128zM672 640l-384 0C270.08 640 256 625.9200000000001 256 608 256 590.0799999999999 270.08 576 288 576l384 0C689.92 576 704 590.0799999999999 704 608 704 625.9200000000001 689.92 640 672 640zM608 256l-320 0C270.08 256 256 241.91999999999996 256 224l0 0C256 206.08000000000004 270.08 192 288 192l320 0c17.92 0 32 14.08 32 32l0 0C640 241.91999999999996 625.92 256 608 256z"  horiz-adv-x="1024" />

    
    <glyph glyph-name="fenlei" unicode="&#59384;" d="M320 832L192 832C121.6 832 64 774.4 64 704l0-128c0-70.4 57.6-128 128-128l128 0c70.4 0 128 57.6 128 128L448 704C448 774.4 390.4 832 320 832zM768 832l-128 0C569.6 832 512 774.4 512 704l0-128c0-70.4 57.6-128 128-128l128 0c70.4 0 128 57.6 128 128L896 704C896 774.4 838.4 832 768 832zM320 384L192 384c-70.4 0-128-57.6-128-128l0-128c0-70.4 57.6-128 128-128l128 0c70.4 0 128 57.6 128 128l0 128C448 326.4 390.4 384 320 384zM768 384l-128 0c-70.4 0-128-57.6-128-128l0-128c0-70.4 57.6-128 128-128l128 0c70.4 0 128 57.6 128 128l0 128C896 326.4 838.4 384 768 384z"  horiz-adv-x="1024" />

    
    <glyph glyph-name="dangan" unicode="&#58983;" d="M814.313 601.776 218.039 601.776c-11.755 0-21.272-9.835-21.272-21.91 0-12.075 9.517-21.85 21.272-21.85l596.273 0c11.76 0 21.27 9.837 21.27 21.85C835.583 591.876 826.073 601.776 814.313 601.776L814.313 601.776zM835.583 712.613 196.767 712.613c-11.817 0-21.34-9.775-21.34-21.847 0-12.075 9.522-21.78 21.34-21.78l638.816 0c11.825 0 21.345 9.705 21.345 21.845C856.928 702.838 847.408 712.613 835.583 712.613L835.583 712.613zM1015.987 446.576l-84 352.087c-0.19 0.765-0.38 1.4-0.695 2.172-13.23 34.557-32.525 57.555-83.825 57.555l-663.991-1.85c-42.542 0-67.52-17.182-83.615-57.235-0.32-0.902-0.643-1.795-0.833-2.62L15.722 437.951c-6.447-6.325-10.602-14.307-10.602-23.57l0-464.329c0-24.025 28.045-47.27 51.427-47.27l937.02 0c23.38 0 33.675 23.245 33.675 47.27L1027.242 414.381C1027.242 428.371 1023.597 439.614 1015.987 446.576L1015.987 446.576zM771.713 91.842 260.647 91.842l0 161.1 511.066 0L771.713 91.842 771.713 91.842zM707.828 416.014c0 0-45.17-0.578-67.465-0.578L402.659 415.436c-22.295 0-78.127 0.578-78.127 0.578L49.955 416.014l89.83 367.954c8.69 21.275 16.93 28.812 43.76 28.812l664.053 1.915c29.52 0 35.46-7.535 43.7-28.75l91.11-369.932L707.828 416.013 707.828 416.014z"  horiz-adv-x="1028" />

    
    <glyph glyph-name="zhuye" unicode="&#58952;" d="M867.2672 334.208c-81.216 66.496-162.048 133.376-243.072 200.128C586.9472 564.992 549.6992 595.648 512.3872 626.432c-3.264-2.368-6.016-4.288-8.64-6.4C387.2032 523.904 270.5312 427.84 154.2432 331.392 149.9552 327.808 146.9472 320.064 146.8832 314.24c-0.448-97.344-0.384-194.752-0.256-292.096 0-30.208 15.936-45.824 46.464-45.824 74.944-0.064 149.824 0 224.768 0 4.032 0 8.064 0.448 13.184 0.768 0 81.344 0 161.6 0 242.432 54.336 0 107.52 0 161.856 0 0-80.576 0-160.896 0-243.264 6.144 0 10.24 0 14.4 0 74.112 0 148.16 0 222.272 0 32.768 0 47.936 15.232 47.936 48.32 0.064 95.68-0.128 191.36 0.192 286.976C877.7632 321.408 874.8832 327.872 867.2672 334.208zM1009.7312 400.192c-38.08 31.68-75.776 63.808-114.56 94.592-13.184 10.432-18.24 21.12-18.048 38.208 1.024 76.608 0.512 153.28 0.448 229.888 0 18.624-5.888 26.176-21.504 26.304-39.808 0.32-79.616 0.32-119.424 0-14.016-0.128-20.8-7.04-21.312-21.312-0.512-12.672-0.192-25.408-0.192-38.08 0-27.008 0-54.016 0-84.032-6.4 5.12-9.984 7.936-13.504 10.88-44.16 36.928-88.32 73.856-132.544 110.784C530.2432 799.744 493.9552 799.808 455.0432 767.424 374.0192 700.032 293.0592 632.512 212.0352 565.056 146.3712 510.336 80.7072 455.552 14.9792 400.832-4.0288 384.96-4.6688 376.96 11.5232 357.76c9.28-11.008 18.432-22.08 27.712-33.088 13.888-16.448 23.04-17.28 39.552-3.456 108.864 90.816 217.728 181.76 326.656 272.576C440.7712 623.296 476.2272 652.8 512.0032 682.624c35.712-29.76 70.848-59.008 105.92-88.256 109.184-91.136 218.432-182.272 327.616-273.408 16.32-13.632 25.408-12.672 39.424 3.968 9.536 11.328 19.008 22.72 28.544 34.048C1028.4192 376.704 1027.6512 385.28 1009.7312 400.192z"  horiz-adv-x="1025" />

    
    <glyph glyph-name="xueli" unicode="&#58940;" d="M502.213611 260.90240400000005c-9.69378 0-19.166525 2.068102-25.326828 5.5279L53.409932 504.017444c-5.940292 3.338025-9.621125 9.619078-9.621125 16.437367 0 6.815219 3.681856 13.105482 9.621125 16.437367l423.524946 237.586117c12.099572 6.859221 38.334073 6.90834 50.630121-0.061398l423.414429-237.524718c5.940292-3.331885 9.621125-9.621125 9.621125-16.437367 0-6.817266-3.681856-13.099343-9.621125-16.437367L527.492344 266.412908C521.38116 262.96436600000004 511.907391 260.90240400000005 502.213611 260.90240400000005zM495.343133 299.297876c0.195451 0 2.944052-0.699941 6.871501-0.699941 4.072759 0 6.797823 0.741897 7.509021 1.030469L903.246287 520.453788 509.061576 741.5790010000001l0 0c-0.171915 0-2.921539 0.705058-6.846942 0.705058-4.099365 0-6.79987-0.735757-7.511067-1.02433L101.156376 520.453788 495.343133 299.297876 495.343133 299.297876zM502.336408-11.631665999999996c-84.041068 0-162.759921 13.020548-221.659379 36.678364-50.677193 20.35663-81.084737 46.934962-81.317027 71.108524 0 0.833995-0.062422 1.632173-0.159636 2.405793l-0.159636 2.40477L199.04073 445.479213l37.696554 0 0-343.42156c0.157589-1.483794 0.257873-2.980891 0.293689-4.491291 1.939165-4.307096 15.754822-20.700461 57.697073-37.536918 54.530964-21.902846 128.267339-33.965579 207.609385-33.965579 79.368652 0 153.090701 12.062733 207.597105 33.965579 42.089607 16.897855 55.856146 33.340339 57.697073 37.561477l0.073678 1.681292-0.050142 346.18858 37.696554 0 0-347.404268-18.897396-1.730411 18.847254-0.184195c-0.243547-24.173562-30.651091-50.751894-81.329307-71.096245C665.119865 1.3878590000000486 586.390779-11.631665999999996 502.336408-11.631665999999996zM980.21017 428.109614M936.428014 88.71885699999996c-10.407024 0-18.8493 8.429996-18.8493 18.847254L917.578714 399.328104c0 10.413164 8.442276 18.848277 18.8493 18.848277s18.8493-8.435113 18.8493-18.848277l0-291.761993C955.277314 97.14987599999995 946.835038 88.71885699999996 936.428014 88.71885699999996z"  horiz-adv-x="1024" />

    
    <glyph glyph-name="suo" unicode="&#58918;" d="M787.16806-56.268282 236.83194-56.268282c-30.395264 0-55.033407 24.638143-55.033407 55.033407L181.798533 466.550111c0 30.395264 24.638143 55.033407 55.033407 55.033407l82.550111 0 0 110.066815c0 106.379842 86.238107 192.617949 192.617949 192.617949s192.617949-86.238107 192.617949-192.617949l0-110.066815 82.550111 0c30.395264 0 55.033407-24.638143 55.033407-55.033407l0-467.784986C842.201467-31.630139 817.562301-56.268282 787.16806-56.268282zM484.483296 223.953887l0-115.121947 55.033407 0 0 115.121947c31.990598 11.373025 55.033407 41.605583 55.033407 77.496002 0 45.592384-36.957727 82.550111-82.550111 82.550111s-82.550111-36.957727-82.550111-82.550111C429.449889 265.559471 452.491675 235.326912 484.483296 223.953887zM622.066815 631.651356c0 60.787458-49.279357 110.066815-110.066815 110.066815s-110.066815-49.279357-110.066815-110.066815l0-110.066815 220.134653 0L622.067838 631.651356z"  horiz-adv-x="1024" />

    
    <glyph glyph-name="chuguo" unicode="&#58937;" d="M965.40416 553.23392c-19.50976 52.24704-47.744 100.41472-83.92064 143.16288-18.26688 21.58592-50.57408 24.27392-72.15872 6.0096-21.58464-18.26688-24.2752-50.5728-6.00832-72.15872C861.4336 561.57184 893.44 474.11968 893.44 384c0-210.32576-171.11424-381.44-381.44-381.44-210.32704 0-381.44 171.11424-381.44 381.44 0 210.32704 171.11296 381.44 381.44 381.44 60.48896 0 118.30784-13.72672 171.85152-40.8 25.2288-12.75648 56.03328-2.64704 68.7936 22.58816 12.76032 25.23392 2.64576 56.03456-22.58816 68.7936C662.05312 850.4064 588.68992 867.84 512 867.84c-65.29536 0-128.66432-12.8-188.34688-38.04416-57.62176-24.37248-109.36064-59.2512-153.7792-103.66976-44.41856-44.41856-79.29856-96.15744-103.66976-153.77792C40.96 512.6656 28.16 449.29536 28.16 384c0-65.29536 12.8-128.6656 38.04416-188.34688 24.37248-57.62176 59.2512-109.36064 103.66976-153.7792s96.15744-79.29856 153.7792-103.66976C383.33568-87.04 446.70464-99.84 512-99.84c65.29536 0 128.6656 12.8 188.34816 38.04416 57.62176 24.3712 109.36064 59.2512 153.77792 103.66976 44.41856 44.41856 79.29856 96.15744 103.66976 153.7792C983.04 255.3344 995.84 318.70464 995.84 384 995.84 442.20672 985.6 499.14496 965.40416 553.23392zM718.52672 647.2128c-28.15104-3.3984-50.06336-18.60608-68.33152-39.93472-17.31456-20.21376-35.4048-39.76192-53.09312-59.65568-9.1136-10.24896-17.9328-20.76672-27.22688-30.848-3.22944-3.50464-5.80992-8.89984-12.31232-7.28448-3.84896 0.95616-7.7504 1.69984-11.59936 2.65472-36.48128 9.04064-72.96128 18.08512-109.43232 27.168-60.3712 15.03616-120.73344 30.10816-181.10592 45.14432-9.62304 2.39616-18.24896-0.9856-22.54336-9.56544-3.24864-6.49216-4.54016-14.9376 4.33152-22.69952 5.83808-5.10848 12.08832-9.75232 18.2336-14.5024 19.91424-15.39456 39.84512-30.76864 59.808-46.10048 16.80256-12.90496 33.6896-25.69984 50.48192-38.61632 19.79008-15.22432 39.51104-30.53696 59.2768-45.79328 8.96128-6.91712 17.95584-13.78944 27.40352-21.04064-19.81568-21.91744-39.24864-43.34848-58.5984-64.85376-4.78592-5.31968-8.928-11.26912-14.04416-16.22784-5.04192-4.88704-10.34752-11.35488-16.57088-12.86272-32.064-7.76576-64.45824-14.1632-96.74112-21.02912-8.75776-1.8624-13.8624-8.44928-14.24256-17.36192-0.544-12.77568 5.64864-16.6592 15.6544-20.66688 25.02016-10.0224 50.08896-19.92704 75.02592-30.15552 2.44352-1.00224 4.96896-3.5456 5.9968-5.98784 11.0208-26.20032 21.80864-52.50048 32.52992-78.82496 4.96-12.18176 18.5408-14.64064 27.68256-9.10848 7.41632 4.48896 8.10752 11.79648 9.67168 19.33568 5.04576 24.3264 10.70976 48.52608 16.34048 72.72704 2.4192 10.39616 2.5728 21.76256 12.8256 28.92416 5.67168 3.9616 10.81984 8.71168 15.99488 13.34016 21.27232 19.02336 42.45248 38.15168 63.70816 57.19424 1.73824 1.55776 3.80032 2.752 5.95072 4.288 2.752-3.44064 5.02272-6.20288 7.21152-9.02784 14.5216-18.73664 29.00352-37.50272 43.5392-56.22784 10.68288-13.76256 21.39776-27.49952 32.15232-41.20448 14.64832-18.66496 29.36576-37.27488 44.02304-55.93344 14.13248-17.9904 28.14464-36.07424 42.3808-53.97888 4.43392-5.57696 14.08384-8.33408 20.02688-5.9008 6.4384 2.6368 14.7328 8.84864 12.9088 18.06464-1.53728 7.76576-3.0528 15.55328-5.02528 23.21664-11.86048 46.09408-23.89504 92.14208-35.7824 138.22976-12.672 49.12256-25.27744 98.26176-37.76256 147.43168-0.48256 1.90208-0.07552 4.68096 1.056 6.208 2.2592 3.04768 5.19168 5.64224 8.05376 8.18944 18.61248 16.56704 37.248 33.1072 55.94496 49.57952 9.17248 8.08064 18.71104 15.76064 27.68384 24.05376 8.83712 8.16768 17.97888 16.22144 25.55648 25.49376 16.64768 20.36992 22.62272 44.4032 20.3456 70.34624-1.32224 15.0592-7.29728 28.56576-18.59968 38.81472C760.5312 647.43936 739.60704 649.75744 718.52672 647.2128zM761.84064 572.31872c1.86496-19.5456-6.144-33.90208-21.51552-44.9664-3.6032-2.59456-7.03616-2.65856-10.54464 0.34688-8.30976 7.11808-16.67712 14.17088-25.08672 21.17376-9.52448 7.93344-19.16416 15.72864-28.6592 23.69792-3.52768 2.96064-6.2976 5.32608-3.69536 11.50208 6.65472 15.78752 25.36192 30.99392 43.86688 29.17632C737.91744 614.3296 759.61984 595.58016 761.84064 572.31872z"  horiz-adv-x="1024" />

    
    <glyph glyph-name="zuzhi" unicode="&#58924;" d="M407.15776 32.337920000000054c-41.7536 20.46976-86.64064 33.34144-132.11136 38.784 1.56672 11.22304 3.05664 22.28736 4.54144 33.24416 10.14784 6.69184 17.408 16.512 18.06848 24.6784 1.23904 10.23488 2.39616 20.46976 3.55328 30.86336 1.40288-1.57184 3.21536-2.64704 5.36064-2.88768 4.86912-0.50176 9.15968 3.05664 9.73824 8.00768l4.7872 47.52384c0.49664 4.87424-3.05664 9.32864-7.84384 9.82016-1.81248 0.24576-3.63008-0.24576-5.11488-0.99328 1.07008 9.00096 2.06336 17.99168 3.13344 26.98752 0.82432 12.46208 6.68672 45.37856-16.58368 66.74944-33.58208 33.83808-107.77088 33.83808-141.43488 0-23.2704-21.37088-17.32608-54.29248-16.50176-66.74944 1.07008-9.07776 2.06336-18.06848 3.13344-26.98752-1.48992 0.74752-3.3024 1.23904-5.03296 0.99328-4.7872-0.49152-8.33536-4.94592-7.84384-9.82016l4.79232-47.52384c0.49664-4.87424 4.7872-8.50944 9.6512-8.00768 2.14528 0.16384 4.0448 1.32096 5.44256 2.88768 1.0752-10.3936 2.31424-20.62848 3.46624-30.86336 0.74752-8.17152 7.92576-17.8944 18.16064-24.6784 1.4848-10.96192 2.9696-22.02112 4.4544-33.16736-45.54752-5.52448-90.27072-18.31424-132.10624-38.77376-13.45024-7.26016-22.8608-26.00448-21.45792-40.52992 1.57184-16.66048 3.22048-33.3312 4.95616-50.07872 1.39776-14.43328 13.6192-28.8768 27.15136-31.60576 114.45248-18.816 230.71744-18.816 345.25184 0 13.53728 2.80064 25.58464 17.17248 27.14624 31.60576 1.56672 16.74752 3.22048 33.34144 4.7872 50.07872C430.10048 6.425600000000031 420.608 25.169920000000047 407.15776 32.337920000000054L407.15776 32.337920000000054zM407.15776 32.337920000000054M981.97504 32.337920000000054c-41.74336 20.46976-86.5536 33.34144-132.0192 38.784 1.47968 11.14112 2.9696 22.1952 4.61312 33.24416 10.07104 6.69184 17.33632 16.512 18.07872 24.6784 1.15712 10.23488 2.39104 20.46976 3.46624 30.86336 1.47968-1.57184 3.21536-2.64704 5.44256-2.88768 4.87424-0.50176 9.08288 3.05664 9.5744 8.00768l4.85888 47.52384c0.50176 4.87424-2.95936 9.32864-7.8336 9.82016-1.72544 0.24576-3.54304-0.24576-5.11488-0.99328 1.07008 9.00096 2.14528 17.99168 3.13344 26.98752 0.74752 12.46208 6.85568 45.37856-16.42496 66.74944-33.75104 33.83808-107.93472 33.83808-141.51168 0-23.2704-21.37088-17.33632-54.29248-16.50688-66.74944 0.98816-9.00096 1.89952-17.99168 3.05152-26.98752-1.48992 0.74752-3.29728 1.23904-5.1968 0.99328-4.79232-0.49152-8.25344-4.94592-7.7568-9.82016l4.85888-47.52384c0.41984-4.87424 4.79744-8.50944 9.58464-8.00768 2.2272 0.16384 4.11648 1.32096 5.43744 2.88768 1.16224-10.3936 2.31424-20.62848 3.47136-30.86336 0.8192-8.17152 8.00768-17.8944 18.1504-24.6784 1.49504-10.96192 2.97472-22.02112 4.54656-33.16736-45.55264-5.52448-90.35264-18.31424-132.11136-38.77376-13.45536-7.26016-22.9376-26.00448-21.54496-40.52992 1.65376-16.66048 3.3024-33.3312 4.95616-50.07872 1.47968-14.43328 13.61408-28.8768 27.0592-31.60576 114.54464-18.816 230.81472-18.816 345.25696 0 13.54752 2.80064 25.67168 17.17248 27.15136 31.60576 1.65376 16.74752 3.30752 33.34144 4.86912 50.07872C1004.99968 6.425600000000031 995.51232 25.169920000000047 981.97504 32.337920000000054L981.97504 32.337920000000054zM981.97504 32.337920000000054M694.57408 563.7580800000001c-41.84064 20.38272-86.56896 33.17248-132.11648 38.784 1.56672 10.97728 3.05664 22.1952 4.53632 33.2544 10.23488 6.59968 17.41312 16.3328 18.06848 24.50944 1.23392 10.3936 2.40128 20.62848 3.6352 30.85824 1.39776-1.4848 3.3024-2.47296 5.44256-2.80576 4.79232-0.4096 9.07776 3.13344 9.49248 8.00768l4.86912 47.52896c0.57344 4.86912-3.05664 9.2416-7.84384 9.82016-1.72544 0.15872-3.53792-0.25088-5.10464-1.0752 1.14688 9.07776 2.2272 18.06848 3.1232 27.14624 0.82944 12.37504 6.85568 45.38368-16.49664 66.66752-33.5872 33.92-107.776 33.92-141.35808 0-23.2704-21.28384-17.3312-54.29248-16.50176-66.66752 0.98816-9.07776 2.14016-18.06848 3.13856-27.14624-1.56672 0.82432-3.3024 1.23392-5.12 1.0752-4.86912-0.57856-8.4224-4.95616-7.92064-9.82016l4.7872-47.52896c0.57344-4.87424 4.864-8.41728 9.56928-8.00768 2.1504 0.25088 4.12672 1.32096 5.5296 2.80576 1.0752-10.23488 2.31424-20.46464 3.46624-30.85824 0.74752-8.17664 8.00768-17.90976 18.15552-24.50944 1.4848-11.0592 2.97472-22.11328 4.4544-33.2544-45.54752-5.61152-90.27072-18.48832-132.02432-38.86592-13.53216-7.17824-23.02464-25.99424-21.53984-40.51456 1.56672-16.67072 3.22048-33.41824 4.95104-50.08384 1.40288-14.52544 13.6192-28.88192 27.06944-31.52896 114.5344-18.8928 230.80448-18.8928 345.25696 0 13.53216 2.64704 25.5744 17.00352 27.15136 31.52896 1.6384 16.6656 3.29728 33.41312 4.78208 50.08384C717.43488 537.68192 708.02432 556.4928 694.57408 563.7580800000001L694.57408 563.7580800000001zM694.57408 563.7580800000001M648.44288 157.44511999999997l-112.06144 66.25792L536.38144 356.1472c0 14.1056-11.136 25.49248-25.00608 25.49248-13.77792 0-24.91904-11.38688-24.91904-25.49248l0-132.37248-111.9744-66.3296c-11.96544-7.11168-16.09216-22.77888-9.07776-34.9952 4.62336-8.25344 12.95872-12.87168 21.70368-12.87168 4.20864 0 8.58624 1.15712 12.38016 3.46624l111.9744 66.176 112.05632-66.176c3.88608-2.30912 8.25344-3.46624 12.4672-3.46624 8.65792 0 17.08544 4.61312 21.62176 12.87168C664.448 134.66624000000002 660.4032 150.33344 648.44288 157.44511999999997L648.44288 157.44511999999997zM648.44288 157.44511999999997"  horiz-adv-x="1024" />

    
    <glyph glyph-name="yuan" unicode="&#58928;" d="M0 384C0 666.769792 229.805588 896 512 896 794.769792 896 1024 666.194412 1024 384 1024 101.230208 794.194412-128 512-128 229.230208-128 0 101.805588 0 384Z"  horiz-adv-x="1024" />

    
    <glyph glyph-name="shengxu" unicode="&#58926;" d="M569.508769 242.647381l151.594419 0 0-108.819221-151.594419 0L569.508769 242.647381zM569.508769 830.306548l385.479045 0 0-108.828814L569.508569 721.477734 569.508769 830.306548 569.508769 830.306548zM569.508769 634.416761l307.513506 0 0-108.819021L569.508769 525.597741 569.508769 634.416761 569.508769 634.416761zM569.508769 438.536968l229.552363 0 0-108.821019-229.552363 0C569.508769 329.715949 569.508769 438.536968 569.508769 438.536968zM569.508769 46.76738799999998l73.62868 0 0-108.826815-73.62868 0L569.508769 46.76738799999998zM354.693414 468.153088l0-530.212516L203.94622-62.059428000000025 203.94622 468.153088 62.754748 468.153088 279.308125 830.812205 495.87849 468.153088 354.693414 468.153088z"  horiz-adv-x="1024" />

    
    <glyph glyph-name="gongzi" unicode="&#58893;" d="M791.423479 689.682028l0 38.495756c0 12.706393-10.29139 23.016203-22.997784 23.016203L262.265704 751.193986c-12.706393 0-22.997784-10.308787-22.997784-23.016203l0-38.335097-4.492314 0c-58.845223 0-106.71958-47.874357-106.71958-106.701161l0-461.454814c0-58.8442 47.874357-106.718557 106.71958-106.718557l553.48074 0c58.82578 0 106.717534 47.874357 106.717534 106.718557L894.97388 583.141526C894.974903 640.894881 848.801281 687.981293 791.423479 689.682028zM848.944544 583.141526l0-138.719388-57.521065 0L791.423479 643.507382C823.387471 641.80767 848.944544 615.516888 848.944544 583.141526zM285.263487 705.181023l460.165448 0L745.428935 444.422138 285.263487 444.422138 285.263487 705.181023zM234.775606 643.829723l4.492314 0L239.26792 444.422138l-61.3513 0c-1.324158 0-2.577708-0.161682-3.830235-0.375553L174.086385 583.141526C174.087409 616.591359 201.3094 643.829723 234.775606 643.829723zM788.25737 60.981119 234.775606 60.981119c-33.467229 0-60.688197 27.239388-60.688197 60.705594L174.087409 398.803147c1.252527-0.214894 2.506077-0.375553 3.830235-0.375553l84.34806 0 506.161015 0 80.518848 0 0-276.740882C848.944544 88.220506 821.722552 60.981119 788.25737 60.981119zM565.636083 588.77892c7.873318 0 14.282285 6.389524 14.282285 14.263865 0 7.892761-6.408967 14.263865-14.282285 14.263865l-30.121018 0 28.600385 28.599362c5.564739 5.584182 5.564739 14.603603 0 20.169365-5.565762 5.584182-14.604626 5.584182-20.170388 0l-35.365462-35.347043-35.364439 35.347043c-5.565762 5.584182-14.603603 5.584182-20.151969 0-5.584182-5.565762-5.584182-14.586207 0-20.169365l28.580942-28.599362-30.121018 0c-7.874341 0-14.263865-6.371104-14.263865-14.263865 0-7.874341 6.389524-14.263865 14.263865-14.263865l42.791595 0 0-28.509311-42.791595 0c-7.874341 0-14.263865-6.389524-14.263865-14.282285 0-7.874341 6.389524-14.263865 14.263865-14.263865l42.791595 0 0-38.031175c0-7.891737 6.390547-14.262842 14.263865-14.262842 7.874341 0 14.263865 6.371104 14.263865 14.262842l0 38.031175L565.636083 531.723459c7.873318 0 14.282285 6.389524 14.282285 14.263865 0 7.891737-6.408967 14.282285-14.282285 14.282285l-42.790572 0 0 28.509311L565.636083 588.77892z"  horiz-adv-x="1024" />

    
    <glyph glyph-name="shizhong" unicode="&#58973;" d="M3.584 221.9008m-3.584 0a3.5 3.5 0 1 0 7.168 0 3.5 3.5 0 1 0-7.168 0ZM518.0416 896C235.2128 896 6.0416 666.7264 6.0416 384s229.1712-512 512-512c282.7264 0 512 229.2736 512 512S800.768 896 518.0416 896zM518.0416-51.2C278.1184-51.2 82.8416 143.9744 82.8416 384S278.1184 819.2 518.0416 819.2s435.2-195.1744 435.2-435.2S757.9648-51.2 518.0416-51.2zM518.0416 712.6016c-21.1968 0-38.4-17.2032-38.4-38.4l0-268.8L313.2416 405.4016c-21.1968 0-38.4-17.2032-38.4-38.4 0-21.1968 17.2032-38.4 38.4-38.4l166.4 0 76.8 0 0 76.8L556.4416 674.2016C556.4416 695.3984 539.2384 712.6016 518.0416 712.6016z"  horiz-adv-x="1031" />

    
    <glyph glyph-name="shezhi" unicode="&#58919;" d="M1019.799983 446.679579C1020.689246 439.269053 1021.335983 431.804632 1021.98272 424.313263 1023.033667 410.974316 1024.03072 397.635368 1024.03072 384.026947 1024.03072 370.418526 1023.033667 357.079579 1021.98272 343.740632 1021.335983 336.276211 1020.689246 328.784842 1019.799983 321.401263 1019.799983 321.401263 1019.799983 321.401263 1019.826931 321.401263 1017.428615 301.891368 1013.817667 282.812632 1009.317457 264.030316 960.919983 252.065684 914.866931 219.028211 885.602088 168.340211 856.337246 117.652211 850.759141 61.224421 864.556194 13.365895 850.489667-0.026947 835.61472-12.503579 820.093036-24.225684 820.093036-24.198737 820.066088-24.198737 820.066088-24.171789 795.867352-42.442105 770.051773-58.664421 742.834931-72.542316 742.700194-72.623158 742.538509-72.704 742.403773-72.757895 729.091773-79.548632 715.429457-85.746526 701.443773-91.351579 700.311983-91.809684 699.126299-92.16 697.994509-92.618105 684.57472-97.899789 670.939352-102.723368 656.980615-106.846316 622.434088-70.790737 570.695141-47.346526 512.03072-47.346526 453.366299-47.346526 401.627352-70.817684 367.080825-106.846316 367.080825-106.846316 367.080825-106.846316 367.080825-106.846316 353.122088-102.723368 339.48672-97.899789 326.066931-92.618105 324.908194-92.16 323.749457-91.809684 322.59072-91.351579 308.631983-85.746526 294.969667-79.548632 281.657667-72.757895 281.495983-72.704 281.361246-72.623158 281.226509-72.542316 254.009667-58.664421 228.194088-42.442105 203.995352-24.171789 203.968404-24.198737 203.968404-24.198737 203.968404-24.225684 188.44672-12.503579 173.544825-0.026947 159.478299 13.365895 173.302299 61.224421 167.724194 117.652211 138.459352 168.340211 109.194509 219.028211 63.114509 252.065684 14.743983 264.030316 10.243773 282.812632 6.632825 301.891368 4.234509 321.374316 4.261457 321.374316 4.261457 321.374316 4.261457 321.374316 3.372194 328.784842 2.725457 336.276211 2.051773 343.740632 1.027773 357.079579 0.03072 370.418526 0.03072 384.026947 0.03072 397.635368 1.027773 410.974316 2.051773 424.313263 2.725457 431.804632 3.372194 439.269053 4.261457 446.679579 4.261457 446.679579 4.261457 446.679579 4.234509 446.679579 6.632825 466.162526 10.243773 485.268211 14.743983 504.023579 63.114509 515.988211 109.167562 549.025684 138.432404 599.713684 167.697246 650.401684 173.275352 706.802526 159.478299 754.688 173.544825 768.080842 188.419773 780.530526 203.941457 792.279579 203.941457 792.252632 203.968404 792.225684 203.968404 792.198737 228.167141 810.469053 254.009667 826.718316 281.226509 840.623158 281.361246 840.677053 281.495983 840.730947 281.63072 840.811789 294.969667 847.602526 308.631983 853.800421 322.617667 859.405474 323.749457 859.863579 324.908194 860.213895 326.039983 860.672 339.459773 865.953684 353.122088 870.777263 367.107773 874.900211 401.654299 838.871579 453.393246 815.427368 512.03072 815.427368 570.668194 815.427368 622.407141 838.871579 656.953667 874.900211 670.939352 870.777263 684.57472 865.953684 698.021457 860.672 699.153246 860.213895 700.311983 859.863579 701.443773 859.405474 715.429457 853.800421 729.091773 847.602526 742.43072 840.811789 742.565457 840.730947 742.700194 840.677053 742.834931 840.623158 770.051773 826.718316 795.867352 810.469053 820.093036 792.198737 820.093036 792.225684 820.093036 792.252632 820.119983 792.279579 835.641667 780.530526 850.516615 768.080842 864.583141 754.688 850.786088 706.802526 856.364194 650.401684 885.629036 599.713684 914.893878 549.025684 960.946931 515.988211 1009.290509 504.023579 1013.817667 485.268211 1017.428615 466.189474 1019.799983 446.679579 1019.799983 446.679579 1019.799983 446.679579 1019.799983 446.679579ZM963.291352 462.174316C913.923773 482.654316 869.218088 520.488421 839.010088 572.820211 808.936825 624.909474 798.481246 682.253474 805.218088 735.043368 765.201246 768.431158 719.579352 795.378526 669.699773 813.675789 627.311562 781.285053 572.311983 761.586526 512.03072 761.586526 451.749457 761.586526 396.749878 781.285053 354.361667 813.675789 304.482088 795.378526 258.860194 768.431158 218.816404 735.043368 225.580194 682.253474 215.097667 624.909474 185.024404 572.820211 154.843352 520.488421 110.137667 482.654316 60.770088 462.174316 56.377667 436.762947 53.925457 410.704842 53.925457 384.026947 53.925457 357.349053 56.377667 331.290947 60.770088 305.879579 110.137667 285.426526 154.843352 247.565474 185.078299 195.260632 215.151562 143.171368 225.607141 85.800421 218.843352 32.983579 258.860194-0.377263 304.482088-27.324632 354.33472-45.621895 396.722931-13.231158 451.749457 6.494316 512.03072 6.494316 572.311983 6.494316 627.338509-13.231158 669.72672-45.621895 719.579352-27.324632 765.174299-0.377263 805.218088 32.983579 798.427352 85.800421 808.909878 143.171368 838.983141 195.260632 869.191141 247.565474 913.896825 285.426526 963.291352 305.906526 967.656825 331.290947 970.135983 357.349053 970.135983 384.026947 970.135983 410.704842 967.656825 436.762947 963.291352 462.174316ZM512.03072 195.664842C407.986931 195.664842 323.641667 280.010105 323.641667 384.053895 323.641667 488.070737 407.986931 572.416 512.03072 572.416 616.047562 572.416 700.392825 488.070737 700.392825 384.053895 700.392825 280.010105 616.047562 195.664842 512.03072 195.664842ZM512.03072 518.440421C437.79072 518.440421 377.644194 458.266947 377.644194 384.053895 377.644194 309.813895 437.79072 249.640421 512.03072 249.640421 586.243773 249.640421 646.417246 309.813895 646.417246 384.053895 646.417246 458.266947 586.243773 518.440421 512.03072 518.440421Z"  horiz-adv-x="1025" />

    
    <glyph glyph-name="fanhui" unicode="&#58892;" d="M462.266 728.534l-328.098-284.381 328.098-284.359v191.379s454.799 147.683 362.705-311.707c0 0 293.586 557.828-368.422 519.544l5.719 169.527z"  horiz-adv-x="1024" />

    
    <glyph glyph-name="logo" unicode="&#59150;" d="M512-128C229.717333-128 0 101.71733300000005 0 384 0 666.282667 229.717333 896 512 896 794.282667 896 1024 666.282667 1024 384 1024 101.71733300000005 794.282667-128 512-128ZM341.333333 384C341.333333 289.90577800000005 417.905778 213.33333300000004 512 213.33333300000004 606.094222 213.33333300000004 682.666667 289.90577800000005 682.666667 384 682.666667 478.094222 606.094222 554.666667 512 554.666667 417.905778 554.666667 341.333333 478.094222 341.333333 384ZM327.395556 516.039111C200.931556 465.749333 113.777778 384 113.777778 384 113.777778 384 200.931556 302.250667 327.395556 251.96088899999995 300.600889 289.28 284.444444 334.677333 284.444444 384 284.444444 433.322667 300.600889 478.72 327.395556 516.039111ZM696.604444 251.96088899999995C823.068444 302.250667 910.222222 384 910.222222 384 910.222222 384 823.068444 465.749333 696.604444 516.039111 723.342222 478.72 739.555556 433.322667 739.555556 384 739.555556 334.677333 723.342222 289.28 696.604444 251.96088899999995ZM512-14.222221999999988C696.945778-14.222221999999988 851.512889 113.15200000000004 896.056889 284.387556 802.247111 223.17511100000002 665.144889 156.44444399999998 512 156.44444399999998 358.855111 156.44444399999998 221.752889 223.17511100000002 127.943111 284.387556 172.487111 113.15200000000004 326.997333-14.222221999999988 512-14.222221999999988ZM512 782.222222C326.997333 782.222222 172.487111 654.848 127.943111 483.612444 221.752889 544.824889 358.855111 611.555556 512 611.555556 665.144889 611.555556 802.247111 544.824889 896.056889 483.669333 851.512889 654.848 697.002667 782.222222 512 782.222222ZM504.888889 270.222222C442.026667 270.222222 391.111111 321.194667 391.111111 384 391.111111 446.862222 442.026667 497.777778 504.888889 497.777778 533.788444 497.777778 559.900444 486.684444 579.925333 468.878222 579.185778 468.935111 578.56 469.333333 577.763556 469.333333 562.062222 469.333333 549.319111 456.590222 549.319111 440.888889 549.319111 425.187556 562.062222 412.444444 577.763556 412.444444 591.928889 412.444444 603.079111 422.912 605.354667 436.394667 613.546667 420.693333 618.666667 403.000889 618.666667 384 618.666667 321.194667 567.694222 270.222222 504.888889 270.222222Z"  horiz-adv-x="1024" />

    
    <glyph glyph-name="lizhi" unicode="&#58944;" d="M119.14544 76.54464299999995V633.403107c0 7.317708 5.963108 13.280817 13.267506 13.280816h276.815588c6.883581-47.370055 47.767322-83.882829 97.013135-83.882829s90.129553 36.512775 97.013134 83.882829h285.295407c7.303374 0 13.267506-5.963108 13.267506-13.280816v-327.161054h56.021886V633.403107c0 38.214472-31.07492 69.302702-69.289392 69.302702H604.279713v70.178124c0 15.468859-12.528261 28.011455-28.011455 28.011455H436.213032c-15.483194 0-28.011455-12.541571-28.011455-28.011455v-70.178124H132.412946c-38.214472 0-69.289392-31.08823-69.289392-69.302702v-556.85744c0-38.201161 31.07492-69.289392 69.289392-69.289392h448.014334v56.021886H132.412946c-7.304398 0-13.267506 5.949798-13.267506 13.266482z m345.079047 668.328859h84.03334v-84.03334c0-23.169501-18.847681-42.017182-42.016158-42.017182-23.169501 0-42.017182 18.847681-42.017182 42.017182v84.03334zM174.730126 234.03970800000002v-52.042044c0-15.468859 12.528261-28.011455 28.011455-28.011454h343.902603c15.483194 0 28.011455 12.542595 28.011455 28.011454v52.042044a28.006335 28.006335 0 0 1-15.483194 25.056521l-103.23631 51.604844 26.69781 38.844162a28.064697 28.064697 0 0 1 4.923865 15.866127V447.391812c0 60.891484-48.664246 108.584063-110.78644 108.584063-62.122194 0-110.78644-47.692578-110.78644-108.584063v-81.981474a27.905995 27.905995 0 0 1 5.197242-16.234726l27.190298-38.255427-107.722975-51.618155a28.006335 28.006335 0 0 1-15.919369-25.262322z m56.021886-17.644616l121.837234 58.374774a27.933639 27.933639 0 0 1 15.017326 18.258947 27.869135 27.869135 0 0 1-4.294175 23.238101l-41.305582 58.087062V447.391812c0 29.474587 24.044923 52.562177 54.763531 52.562177 30.719631 0 54.764554-23.08759 54.764554-52.562177v-73.282544l-40.019582-58.210953a28.00224 28.00224 0 0 1-4.048442-22.868478c2.051866-7.836818 7.358664-14.429616 14.607772-18.05417l116.558081-58.251908v-6.715664H230.752012v6.386997zM949.112003 15.27022599999998l-86.973938 81.865775 86.973938 81.865775c11.269906 10.600285 11.79004 28.325788 1.203066 39.595693-10.64124 11.28424-28.366743 11.80335-39.609004 1.189755l-89.436383-84.182828-89.436383 84.182828c-11.269906 10.613595-28.968787 10.093462-39.610028-1.189755-10.58595-11.269906-10.066841-28.995409 1.204089-39.595693l86.973939-81.865775-86.973939-81.865775c-11.269906-10.600285-11.79004-28.325788-1.204089-39.595694a27.993025 27.993025 0 0 1 20.407058-8.808485c6.89382 0 13.786616 2.51671 19.20297 7.617707l89.436383 84.182827 89.436383-84.182827c5.416353-5.102021 12.309149-7.617707 19.202969-7.617707a27.984834 27.984834 0 0 1 20.406035 8.808485c10.586974 11.27093 10.066841 28.996432-1.203066 39.595694zM765.344041 332.502664c0 15.468859-12.528261 28.011455-28.011454 28.011454H623.510327c-15.483194 0-28.011455-12.542595-28.011455-28.011454s12.528261-28.011455 28.011455-28.011455h113.82226c15.483194 0 28.011455 12.541571 28.011454 28.011455zM623.510327 479.260243c-15.483194 0-28.011455-12.542595-28.011455-28.011455s12.528261-28.011455 28.011455-28.011455h178.243077c15.48217 0 28.011455 12.542595 28.011454 28.011455s-12.528261 28.011455-28.011454 28.011455H623.510327z"  horiz-adv-x="1024" />

    
    <glyph glyph-name="group" unicode="&#59057;" d="M320 832h320v-256H320zM384 192h192v-256H384zM0 192h192v-256H0zM768 192h192v-256h-192zM128 384h320v-128h64V384h320v-128h64V448H512V512H448v-64H64v-192h64V384z"  horiz-adv-x="1024" />

    
    <glyph glyph-name="guojia" unicode="&#58917;" d="M1021.952 431.616v1.024c-0.512 7.68-1.536 14.848-2.56 22.528v1.024C984.064 704.512 770.56 896 512 896 229.376 896 0 666.624 0 384s229.376-512 512-512 512 229.376 512 512c0 15.872-1.024 32.256-2.048 47.616z m-129.536 212.48c1.024-1.536 2.56-3.584 3.584-5.12 1.024-2.048 2.56-3.584 3.584-5.632 2.56-3.584 4.608-7.168 6.656-10.752 0.512-0.512 1.024-1.536 1.536-2.048l6.144-10.752c0.512-0.512 0.512-1.024 1.024-2.048 30.72-54.784 49.664-115.712 55.808-178.688-109.056-18.432-134.144-35.84-144.896-64.512-8.704-22.528-5.632-40.96-0.512-53.76-3.072-3.072-6.656-6.144-9.216-8.704-24.064-22.528-44.544-42.496-44.544-71.168 0-13.824 3.584-28.16 7.68-43.008 1.536-5.12 3.584-12.288 4.608-17.92-5.12-6.656-12.288-15.872-17.408-29.184-3.072-2.048-6.656-4.608-10.752-7.68-3.072 18.432-3.584 41.984-1.536 50.176 11.776 36.352-2.048 61.952-13.312 76.8 2.048 9.216 2.56 20.992-1.024 34.304-7.68 27.136-31.232 44.544-59.904 44.544-10.24 0-19.968-2.048-29.184-4.096-5.12-1.024-10.752-2.56-15.872-3.072h-0.512c-1.536 0-10.752 4.096-22.528 23.04 3.072 9.216 15.872 27.136 20.992 33.792 9.728 13.312 17.92 24.064 20.48 38.912 2.56 12.8 1.536 26.112 0.512 40.448-0.512 3.584-0.512 9.216-1.024 13.824 11.264 8.704 34.304 30.208 29.184 64 0 4.608 2.048 14.336 3.584 21.504 4.608 1.536 9.216 2.56 12.288 3.072 34.304 5.12 47.104 35.328 53.248 53.248 18.944 6.656 58.368 18.944 129.024 38.912 4.096-7.168 8.192-12.8 12.288-18.432zM273.92 412.16c-2.56-3.584-4.608-7.68-6.656-11.264h-5.632c-4.096 0-7.68 0-11.264 0.512-26.624 70.144-50.688 86.016-71.68 91.648-4.608 1.536-9.216 2.048-12.8 3.072-9.728 24.576-34.304 43.008-81.408 59.392 0 0.512 0.512 1.024 0.512 1.536 1.024 3.072 2.56 5.632 3.584 8.192 0.512 1.536 1.536 3.072 2.048 5.12 1.024 1.536 1.536 3.584 2.56 5.12 1.024 2.048 2.048 4.608 3.072 6.656 0 0.512 0.512 1.024 0.512 1.536 27.136 55.808 65.536 105.472 111.616 145.92 44.544-116.736 63.488-126.976 89.088-132.608 25.6-5.632 62.976-16.896 81.92-24.576-21.504-11.264-41.984-22.528-55.808-35.84-19.456-18.944-53.248-78.336-49.664-124.416zM51.2 384c0 42.496 5.632 83.968 16.896 123.392 25.6-8.704 47.104-19.456 50.688-30.72 9.216-29.696 27.136-27.136 45.568-32.256 18.944-5.632 40.448-67.584 44.544-79.36 4.096-12.288 36.352-14.848 52.736-14.848s51.2-32.256 61.952-43.008 9.216-36.352 2.56-74.24 17.408-43.008 18.944-56.832c1.536-13.312 24.064-27.136 29.696-44.544 5.632-17.408 6.656-41.984-4.096-64.512-10.752-23.04-13.312-52.736-9.216-70.144 1.024-5.632-4.096-23.04-11.776-44.544C175.616 18.432 51.2 186.88 51.2 384z m325.12-161.28v1.536c2.56 14.848 5.12 29.696 5.632 44.544l7.68-4.608c4.096-2.56 9.216-5.632 14.336-8.704 3.584-2.048 7.68-3.584 11.264-5.12 6.656-35.84 31.232-47.104 47.104-50.688 6.144-1.536 12.8-2.048 19.968-2.048 5.632 0 10.752 0.512 15.36 0.512-31.232-20.48-55.808-57.856-68.608-87.552-0.512 12.288-2.56 24.576-6.144 36.352-6.144 19.456-18.944 33.792-27.136 43.008-1.024 1.024-1.536 2.048-2.56 3.072-4.096 13.824-12.288 23.552-16.896 29.696 0.512-0.512 0.512-0.512 0 0zM512-76.8c-43.52 0-86.016 6.144-125.952 17.408 5.632 19.968 10.24 36.864 11.776 43.008 5.632 19.968 67.584 66.048 72.704 89.088 5.632 23.04 34.816 74.24 63.488 86.016 28.16 12.288 27.136 59.392 9.216 79.36-8.192 9.216-19.456 11.264-31.744 11.264-9.728 0-19.968-1.536-28.672-1.536-3.072 0-6.144 0-8.704 1.024-17.408 4.096-4.096 34.816-10.752 43.008-2.56 3.072-5.632 3.584-9.728 3.584h-6.656c-5.12 0-11.264 0.512-18.944 4.608-15.36 8.192-28.672 20.992-48.64 20.992-2.56 0-5.12 0-8.192-0.512s-5.632-0.512-8.704-0.512c-20.48 0-37.888 12.288-53.248 29.184-17.408 18.944 24.064 45.568 16.384 61.952-8.192 16.384 14.848 71.168 33.792 90.112 18.944 18.944 84.992 43.008 89.088 57.856s-13.312 33.792-27.136 48.64c-13.312 14.848-89.088 34.816-113.152 40.448-12.8 3.072-37.376 60.928-57.856 115.712C325.632 814.592 415.232 844.8 512 844.8c130.048 0 247.296-54.272 331.264-140.8-58.88-16.896-129.024-37.888-132.608-44.032-6.656-10.752-10.752-38.912-19.968-40.448-9.216-1.536-49.664-10.752-51.2-23.04s-10.752-44.544-8.192-59.392-24.064-19.968-28.16-37.888c-4.096-17.408 2.56-49.664 0-63.488-2.56-13.312-60.416-66.048-37.888-104.96 20.48-35.328 44.544-51.712 68.608-51.712 2.56 0 5.12 0 8.192 0.512 16.384 2.56 29.184 7.168 37.888 7.168 5.632 0 9.216-2.048 10.752-7.68 4.096-14.336-10.752-26.112 0-39.936 10.752-13.312 21.504-21.504 14.848-41.984-6.656-19.968-4.096-70.144 5.632-96.768 9.216-27.136 9.216-43.008 21.504-45.568 1.536-0.512 2.56-0.512 4.096-0.512 11.264 0 24.576 9.216 38.912 26.112 16.384 18.944 32.256 18.944 37.888 37.888 5.632 18.944 23.04 25.6 23.04 44.544s-13.312 52.736-13.312 67.584c0 14.848 63.488 57.856 61.952 75.264-1.536 17.408-18.944 18.944-10.752 40.448 4.096 11.264 53.76 22.528 99.328 30.72-5.12-250.88-209.92-453.632-461.824-453.632z"  horiz-adv-x="1024" />

    
    <glyph glyph-name="tongxin" unicode="&#58883;" d="M737.557-52.971L557.985 356.527c28.778 16.294 49.019 45.987 49.019 81.393 0 52.475-42.529 95.005-95.004 95.005s-95.004-42.53-95.004-95.005c0-35.405 20.242-65.099 48.947-81.393L286.373-52.97c-15.517-35.548 3.456-64.606 42.248-64.606H695.38c38.791 0 57.764 29.058 42.177 64.606zM457.863 438.793c0 30.686 24.876 55.561 55.561 55.561 30.686 0 55.56-24.875 55.56-55.561s-24.875-55.562-55.56-55.562c-30.685 0-55.561 24.876-55.561 55.562z m-123.92-512.058l178.064 405.934L689.986-73.18l-356.042-0.086zM512 731.89c-162.08 0-293.9-131.892-293.9-293.9 0-85.2 36.957-161.373 95.004-215.046l22.595 51.487c-40.859 43.386-65.906 101.829-65.906 166.128 0 133.862 108.516 242.378 242.378 242.378S754.549 574.422 754.549 440.56c0-64.422-25.141-122.967-66.138-166.378l22.485-51.237C768.943 276.689 805.9 352.79 805.9 437.99c0 162.08-131.82 293.9-293.9 293.9z m0 153.687c-246.856 0-447.657-200.802-447.657-447.658 0-148.466 72.928-279.864 184.578-361.398l23.793 54.272c-93.118 71.784-153.125 184.42-153.125 311.087 0 216.817 175.764 392.581 392.58 392.581s392.582-175.764 392.582-392.58c0-126.784-60.117-239.51-153.381-311.283l23.707-54.076c111.65 81.462 184.578 212.932 184.578 361.398 0 246.855-200.799 447.657-447.655 447.657z"  horiz-adv-x="1024" />

    
    <glyph glyph-name="junren" unicode="&#58889;" d="M911.7 510.57l42.325 117.874H747.75c0 15.703-105.55 58.626-235.752 58.626-130.2 0-235.752-42.924-235.752-58.626H69.975L112.3 510.571h163.947v-29.47H122.881l42.325-117.872h111.041v-29.47h-100.46l42.325-117.873h58.135l234.75-134.956 234.748 134.956H805.886l42.323 117.873h-100.46v29.47h111.044l42.323 117.873H747.75V510.57H911.7zM613.364 318.173l-86.627 45.543-86.628-45.543 16.545 96.46-70.082 68.315 96.852 14.073 43.313 87.763 43.315-87.763 96.851-14.073-70.082-68.314 16.543-96.461z"  horiz-adv-x="1024" />

    
    <glyph glyph-name="zhengzhimianmao" unicode="&#58927;" d="M773.906442 862.656601H250.089946c-119.700275 0-216.750159-97.013759-216.750159-216.750159v-523.812884c0-119.7364 97.049884-216.750159 216.750159-216.750159H773.906442c119.700275 0 216.750159 97.013759 216.750159 216.750159v523.812884c0 119.7364-97.049884 216.750159-216.750159 216.750159z m43.747407-702.111565l-76.870444-75.920355-56.091329 56.517604c-136.0324-81.494447-262.368842-71.82739-377.694376 5.996754l-7.445368-7.336993c0.527425-2.821365 1.163226-5.574092 1.163226-8.608594 0-25.822169-22.050716-47.132322-47.872885-47.132322-25.858294 0-46.955309 21.097015-46.95531 46.919185 0 25.894419 20.847753 48.331673 46.673534 48.331673 2.680477 0 5.751104-0.917576 8.290694-1.340239 0.07225 0.07225 4.233853 3.529415 5.574092 5.079179-15.168899 15.382036-27.375545 33.585437-41.912256 53.764877l48.577323 48.40031c100.297523-104.141226 236.189035-121.145276 334.232357-67.239512l-200.349396 201.01771-57.503818-57.294292-86.255725 86.010076 152.295886 152.472899c28.329246-11.429958 70.237889-5.928117 96.663346 19.966302l47.804248-47.627235-76.451394-76.837931 200.418034-201.371735c82.057998 153.462725-13.792535 342.905976-171.7745 402.176307 194.916193 5.855867 411.171439-234.317759 248.962844-478.801101l56.521217-57.142567z"  horiz-adv-x="1024" />

    
    <glyph glyph-name="leader" unicode="&#58978;" d="M90.112 250.36800000000005c49.152 18.944 98.816 38.4 147.968 57.344l36.864 27.648 76.8-154.112L419.84 335.87199999999996c12.8-9.216 25.088-18.944 37.888-28.16l101.376-38.4c1.024 3.584 2.56 6.656 4.096 9.728 36.864 13.824 69.632 28.16 91.136 33.28 22.016-50.688 56.32-88.064 97.28-116.736 45.056 30.72 77.824 70.144 100.352 116.224 23.552-4.096 53.248-12.8 77.824-18.432 20.992-38.4 21.504-130.56 20.48-187.392h-313.344c1.024-25.6 0.512-51.712 0-77.824H66.56c-3.584 106.496 3.584 182.784 23.552 222.208z m578.048 224.256c44.032-6.144 129.024 2.56 164.352 18.432 1.536-23.04 2.048-68.608-12.8-102.912-6.656-16.384-16.896-29.184-27.136-39.424l83.456-2.048s-8.192 67.072-5.632 84.992c34.304 239.104-274.432 239.104-240.64 0 2.56-17.408-5.632-84.992-5.632-84.992l83.968 2.048c-10.24 10.24-20.48 23.04-27.136 39.424-11.264 27.136-13.312 60.416-13.312 84.992l0.512-0.512z m-427.008-33.28c-4.608 46.592-5.632 79.36 8.704 125.952 53.76 32.768 119.296-19.968 198.144-2.048 7.68-38.912 10.24-71.68 8.192-125.952 0 0 30.72 26.624 34.816 49.152 4.096 22.528-3.584 123.392-14.848 139.264-43.52 64.512-203.776 66.56-251.392 11.264-12.8-14.848-27.648-152.576-13.824-171.008 14.848-18.432 30.208-26.624 30.208-26.624z"  horiz-adv-x="1024" />

    
    <glyph glyph-name="close1" unicode="&#59465;" d="M556.8 384l265.6 265.6c12.8 12.8 12.8 32 0 44.8s-32 12.8-44.8 0L512 428.8 246.4 694.4c-12.8 12.8-32 12.8-44.8 0s-12.8-32 0-44.8l265.6-265.6-265.6-265.6c-12.8-12.8-12.8-32 0-44.8 6.4-6.4 12.8-9.6 22.4-9.6s16 3.2 22.4 9.6l265.6 265.6 265.6-265.6c6.4-6.4 16-9.6 22.4-9.6s16 3.2 22.4 9.6c12.8 12.8 12.8 32 0 44.8L556.8 384z"  horiz-adv-x="1024" />

    
    <glyph glyph-name="work" unicode="&#59110;" d="M512.3 204.5c-69.2 0-125.5 56.3-125.5 125.5s56.3 125.5 125.5 125.5 125.5-56.3 125.5-125.5c0-25.8-7.8-50.5-22.5-71.6-5.7-8.1-16.8-10.1-24.9-4.5-8.1 5.7-10.1 16.8-4.5 24.9 10.5 15.1 16 32.7 16 51.1 0 49.4-40.2 89.6-89.6 89.6-49.4 0-89.6-40.2-89.6-89.6s40.2-89.6 89.6-89.6c8.1 0 16.1 1.1 23.8 3.2 9.4 2.6 19.4-2.9 22.1-12.5 2.6-9.5-3-19.4-12.5-22.1-10.8-2.9-22.1-4.4-33.4-4.4zM924.5 312h-305.5c-9.9 0-17.9 8-17.9 17.9s8 17.9 17.9 17.9h305.5c9.9 0 17.9-8 17.9-17.9s-8-17.9-17.9-17.9zM404 312h-303.9c-9.9 0-17.9 8-17.9 17.9s8 17.9 17.9 17.9h303.9c9.9 0 17.9-8 17.9-17.9s-8-17.9-17.9-17.9zM754.2 634.6c-9.9 0-17.9 8-17.9 17.9v53.8c0 22.7-7.3 35.8-44.8 35.8h-358.4c-37.5 0-44.8-13.1-44.8-35.8v-53.8c0-9.9-8-17.9-17.9-17.9s-17.9 8-17.9 17.9v53.8c0 32.7 14 71.7 80.7 71.7h358.5c66.7 0 80.7-39 80.7-71.7v-53.8c-0.2-9.9-8.3-17.9-18.2-17.9zM870.7-10.6h-716.9c-49.4 0-89.6 40.2-89.6 89.6v501.8c0 49.4 40.2 89.6 89.6 89.6h716.9c49.4 0 89.6-40.2 89.6-89.6v-501.8c0.1-49.4-40.1-89.6-89.6-89.6zM153.8 634.6c-29.6 0-53.8-24.1-53.8-53.8v-501.8c0-29.6 24.1-53.8 53.8-53.8h716.9c29.6 0 53.8 24.1 53.8 53.8v501.8c0 29.6-24.1 53.8-53.8 53.8h-716.9z"  horiz-adv-x="1024" />

    
    <glyph glyph-name="changgui" unicode="&#58982;" d="M558.545455 240.12800000000004v-72.192A221.696 221.696 0 0 1 728.064 337.45454500000005h-72.192A151.901091 151.901091 0 0 0 558.545455 240.12800000000004zM655.872 430.545455h72.192A221.672727 221.672727 0 0 1 558.545455 600.0640000000001v-72.192A151.854545 151.854545 0 0 0 655.872 430.545455z m181.992727-95.13891l-14.289454-46.778181a325.236364 325.236364 0 0 0-23.877818-57.413819l-23.016728-43.217454 32.791273-36.352a46.312727 46.312727 0 0 0-1.256727-63.860364 45.451636 45.451636 0 0 0-32.395637-13.288727c-11.682909 0-22.853818 4.282182-31.464727 12.032l-36.352 32.791273-43.217454-23.04c-18.478545-9.821091-37.794909-17.850182-57.437091-23.854546l-46.754909-14.289454-2.56-48.826182A46.359273 46.359273 0 0 0 512-34.90909099999999a46.359273 46.359273 0 0 0-46.033455 44.218182l-2.56 48.826182-46.754909 14.289454a324.491636 324.491636 0 0 0-57.437091 23.877818l-43.217454 23.016728-36.352-32.814546c-8.610909-7.726545-19.781818-12.008727-31.464727-12.008727-12.334545 0-23.831273 4.724364-32.395637 13.265455a46.312727 46.312727 0 0 0-1.256727 63.883636l32.791273 36.352-23.016728 43.217454a324.491636 324.491636 0 0 0-23.877818 57.437091l-14.289454 46.754909-48.826182 2.56A46.336 46.336 0 0 0 93.090909 384c0 24.529455 19.409455 44.730182 44.218182 46.033455l48.826182 2.56 14.289454 46.754909c6.004364 19.642182 14.033455 38.981818 23.877818 57.460363l23.016728 43.194182-32.791273 36.375273a46.312727 46.312727 0 0 0 1.256727 63.837091 45.451636 45.451636 0 0 0 32.395637 13.265454c11.682909 0 22.853818-4.258909 31.464727-12.008727l36.352-32.814545 43.217454 23.04a324.491636 324.491636 0 0 0 57.437091 23.877818l46.754909 14.289454 2.56 48.826182A46.336 46.336 0 0 0 512 802.909091c24.529455 0 44.730182-19.409455 46.033455-44.218182l2.56-48.826182 46.754909-14.289454c19.642182-6.004364 38.958545-14.033455 57.437091-23.877818l43.217454-23.04 36.352 32.814545c8.610909 7.749818 19.781818 12.032 31.464727 12.032 12.334545 0 23.831273-4.724364 32.395637-13.288727a46.312727 46.312727 0 0 0 1.256727-63.837091l-32.791273-36.375273 23.016728-43.194182c9.844364-18.478545 17.873455-37.818182 23.877818-57.483636l14.289454-46.731636 48.826182-2.56c24.808727-1.303273 44.218182-21.504 44.218182-46.033455a46.336 46.336 0 0 0-44.218182-46.033455l-48.826182-2.56zM1000.727273 384c0 61.952-49.198545 112.570182-110.382546 115.758545a392.215273 392.215273 0 0 1-29.021091 69.818182c41.076364 45.568 40.075636 116.177455-3.746909 160a115.2 115.2 0 0 1-81.757091 33.745455 116.596364 116.596364 0 0 1-78.219636-30.021818 393.658182 393.658182 0 0 1-69.841455 29.044363C624.546909 823.528727 573.952 872.727273 512 872.727273c-61.952 0-112.546909-49.198545-115.758545-110.382546-24.366545-7.447273-47.709091-17.245091-69.841455-29.021091a116.596364 116.596364 0 0 1-78.219636 29.998546 115.106909 115.106909 0 0 1-81.757091-33.745455c-43.822545-43.822545-44.8-114.432-3.746909-159.976727-11.776-22.109091-21.573818-45.451636-29.021091-69.841455C72.471273 496.570182 23.272727 445.952 23.272727 384c0-61.952 49.198545-112.546909 110.382546-115.758545 7.447273-24.366545 17.245091-47.709091 29.021091-69.841455-41.053091-45.544727-40.075636-116.154182 3.746909-159.976727a115.2 115.2 0 0 1 81.757091-33.745455 116.596364 116.596364 0 0 1 78.219636 29.998546 395.403636 395.403636 0 0 1 69.841455-29.021091C399.453091-55.55200000000002 450.048-104.72727299999997 512-104.72727299999997c61.952 0 112.546909 49.198545 115.758545 110.382546a395.403636 395.403636 0 0 1 69.841455 29.021091 116.596364 116.596364 0 0 1 78.219636-30.021819 115.2 115.2 0 0 1 81.757091 33.745455c43.822545 43.845818 44.8 114.455273 3.746909 160 11.776 22.109091 21.573818 45.474909 29.021091 69.818182C951.528727 271.476364 1000.727273 322.071273 1000.727273 384z m-704.791273 46.545455h72.192A151.854545 151.854545 0 0 0 465.454545 527.8720000000001v72.192A221.672727 221.672727 0 0 1 295.936 430.545455z m72.192-93.09091h-72.192A221.696 221.696 0 0 1 465.454545 167.93600000000004v72.192A151.901091 151.901091 0 0 0 368.128 337.45454500000005z"  horiz-adv-x="1024" />

    
    <glyph glyph-name="shuxian" unicode="&#58923;" d="M501.95968 886.54592h16.4928v-1006.624l-16.49152 0.00128-0.00128 1006.62272z"  horiz-adv-x="1024" />

    
    <glyph glyph-name="country" unicode="&#58916;" d="M967.111111 156.44444399999998l-113.777778-227.555555-113.777777 56.888889-568.888889-56.888889-113.777778 56.888889 113.777778 227.555555 113.777777-56.888889 204.458667 20.423112C421.489778 237.90933299999995 227.555556 424.789333 227.555556 554.666667a284.444444 284.444444 0 1 0 568.888888 0c0-126.293333-183.523556-306.574222-255.658666-372.565334L853.333333 213.33333300000004z m-341.333333 398.222223a113.777778 113.777778 0 1 1-113.777778-113.777778 113.777778 113.777778 0 0 1 113.777778 113.777778z"  horiz-adv-x="1024" />

    
    <glyph glyph-name="link" unicode="&#59392;" d="M524.8 278.4h16v64h-16c-57.6 0-102.4 44.8-102.4 102.4v12.8c0 57.6 44.8 102.4 102.4 102.4h204.8c57.6 0 102.4-44.8 102.4-102.4v-12.8c0-54.4-44.8-102.4-102.4-102.4v-64c89.6 0 166.4 73.6 166.4 166.4v12.8c0 92.8-73.6 166.4-166.4 166.4h-204.8c-92.8 0-166.4-73.6-166.4-166.4v-12.8c0-92.8 73.6-166.4 166.4-166.4zM294.4 147.20000000000005h204.8c92.8 0 166.4 73.6 166.4 166.4v12.8c0 92.8-73.6 166.4-166.4 166.4h-16v-64h16c57.6 0 102.4-44.8 102.4-102.4v-12.8c0-57.6-44.8-102.4-102.4-102.4H294.4C236.8 211.20000000000005 192 256 192 313.6v12.8c0 54.4 44.8 102.4 102.4 102.4v64C201.6 489.6 128 416 128 326.4v-12.8c0-92.8 73.6-166.4 166.4-166.4z"  horiz-adv-x="1024" />

    
    <glyph glyph-name="homeclose" unicode="&#59060;" d="M243.795546-128h243.818125v198.342139c-28.292657 6.7514-48.750077 24.318589-48.750077 45.475987s20.45742 38.769746 48.750077 45.498566v198.319559H243.795546V-128z m292.568203 289.316692c28.292657-6.70624 48.817817-24.341169 48.817817-45.498566s-20.50258-38.702007-48.817817-45.475987v-198.342139h243.818125V359.636251H536.363749v-198.319559zM512 791.883925L6.593341 432.795237h139.67947V-128h48.750078V408.408908h633.909062V-128h48.772658V432.795237h139.67947L512 791.883925z"  horiz-adv-x="1024" />

    
    <glyph glyph-name="homeopen" unicode="&#59062;" d="M244.314884-128l146.001852 97.342095V261.368379l-146.001852 97.342095V-128z m389.3458 97.342095l146.024432-97.342095V358.68789400000003l-146.024432-97.342095v-292.003704zM512 790.10011L7.586858 431.68882H146.995369V-128h48.659758V407.347652h632.667166V-128h48.682338V431.68882h139.408511L512 790.10011z"  horiz-adv-x="1024" />

    
    <glyph glyph-name="rizhi" unicode="&#59037;" d="M568.888889-14.222222H56.888889V782.222222h739.555555v-398.222222h-56.888888V725.333333H113.777778v-682.666666h398.222222zM711.111111 384c108.088889 0 199.111111-91.022222 199.111111-199.111111S819.2-14.222222 711.111111-14.222222 512 76.8 512 184.888889 603.022222 384 711.111111 384m0 56.888889C568.888889 440.888889 455.111111 327.111111 455.111111 184.888889s113.777778-256 256-256 256 113.777778 256 256S853.333333 440.888889 711.111111 440.888889zM227.555556 839.111111h56.888888v-170.666667H227.555556zM568.888889 839.111111h56.888889v-170.666667h-56.888889zM170.666667 554.666667h512v-56.888889H170.666667zM170.666667 384h284.444444v-56.888889H170.666667zM170.666667 213.333333h227.555555v-56.888889H170.666667zM853.333333 99.555556h-170.666666v227.555555h56.888889v-170.666667h113.777777z"  horiz-adv-x="1024" />

    
    <glyph glyph-name="zhuanjia" unicode="&#58882;" d="M384 576c0-70.7 57.3-128 128-128s128 57.3 128 128-57.3 128-128 128-128-57.3-128-128zM768 285.6s-70.4 151.5-256 151.5-256-151.5-256-151.5v-83.2h512v83.2zM347.5 706.9l-30 12.2L513 799l195.5-79.9L513 639.2l-158.7 64.9m345.9 13.3v-78.9h7.8v78.9h-7.8z m-10.9-154.6h29.6v76.8h-29.6v-76.8zM553.9 380.79999999999995c2.1 4.3 2.3 8.7 0.6 13.4-1.7 4.6-4.3 9.1-7.7 13.4-3.4 4.2-7.5 8.9-12.3 13.8 0 0-2.8 0.2-6.6 1.3-10.9 3.9-22.7 3.9-33.8 0.1-3.8-1.1-6.6-1.4-6.6-1.4-4.7-4.9-8.5-9.6-11.2-13.8-2.7-3.6-4.9-7.5-6.6-11.8s-1.6-8.2 0.5-11.7c4.7-9.9 8.9-18.7 12.3-26.1 3.4-7.5 7.1-13.4 11.2-17.6-1.4-6.4-3.4-15.5-6.2-27.2-2.7-11.8-5.2-23.8-7.6-36.3-2.4-12.4-4.4-24.2-6.2-35.2-1.7-11-2.5-19.4-2.5-25 0-3.6 1.5-7.8 4.6-12.8s6.7-10.1 10.7-15.5c4.1-5.3 8.4-9.8 12.8-13.4 4.4-3.6 8.4-5.3 11.8-5.3 3.4 0 7.5 1.8 12.2 5.3 4.8 3.6 9.4 7.6 13.8 12.3 4.4 4.6 8.2 9.6 11.2 14.9 3.1 5.3 4.6 9.8 4.6 13.3 0 4.3-1 11.6-3 21.9-2.1 10.3-4.3 21.9-6.7 34.7-2.3 12.8-4.9 25.3-7.7 37.4-2.7 12.1-5.1 21.7-7.1 28.8 4.1 3.6 8 8.7 11.7 15.5 3.7 6.5 8.3 15.6 13.8 27zM874.7 309.1H149.3L128 223.79999999999995l106.7-64-42.7 64h640l-42.7-64 106.7 64-21.3 85.3zM192 223.79999999999995h640l-85.3-256H277.3l-85.3 256z"  horiz-adv-x="1024" />

    
    <glyph glyph-name="qiehuan" unicode="&#59265;" d="M198.4 192h537.6c54.4 0 96 41.6 96 96v96c0 19.2 12.8 32 32 32s32-12.8 32-32v-96c0-89.6-70.4-160-160-160h-563.2l118.4-118.4c12.8-12.8 12.8-32 0-44.8-12.8-12.8-32-12.8-44.8 0l-156.8 156.8c-6.4 6.4-9.6 16-9.6 22.4 0 9.6 3.2 16 9.6 22.4l156.8 156.8c12.8 12.8 32 12.8 44.8 0 12.8-12.8 12.8-32 0-44.8l-92.8-86.4z m643.2 416h-617.6c-54.4 0-96-41.6-96-96v-96c0-19.2-12.8-32-32-32s-32 12.8-32 32v96c0 89.6 70.4 160 160 160h595.2l-92.8 92.8c-12.8 12.8-12.8 32 0 44.8 12.8 12.8 32 12.8 44.8 0l156.8-160c6.4-6.4 9.6-16 9.6-22.4 0-9.6-3.2-16-9.6-22.4l-156.8-156.8c-12.8-12.8-32-12.8-44.8 0-12.8 12.8-12.8 32 0 44.8l115.2 115.2z"  horiz-adv-x="1024" />

    
    <glyph glyph-name="luyong" unicode="&#59141;" d="M340.297694 674.677186l230.551688 175.253312A228.850199 228.850199 0 0 0 791.192139 880.557291l366.670765-139.947427A208.85771 208.85771 0 0 1 1233.579141 725.7218399999999h60.402841a31.477537 31.477537 0 0 0 32.32828-31.052165v-448.767584a32.753653 32.753653 0 0 0-32.32828-32.328281h-80.820703a51.044654 51.044654 0 0 1-31.052164-11.059675l-17.440257-14.462652a10.208931 10.208931 0 0 0-14.888024 0L723.1326 709.557699a35.305886 35.305886 0 0 1-42.537212 8.082071l-197.798035-109.320635a149.305613 149.305613 0 0 0-127.611635-6.805953 45.089444 45.089444 0 0 0-23.395466 58.27598 20.843234 20.843234 0 0 0 8.507442 14.888024zM39.134235 215.27529900000002h68.910283l48.492421 59.126724a122.932542 122.932542 0 0 0 173.551824 16.164141 127.611635 127.611635 0 0 0 42.537212-61.678957 122.081798 122.081798 0 0 0 85.074423-85.074424A120.380309 120.380309 0 0 0 528.31217 87.66366400000004a123.783286 123.783286 0 0 0 68.910283-35.305886 127.611635 127.611635 0 0 0 17.440257-153.559335l-6.805954-11.910419a71.462516 71.462516 0 0 1 98.686331 17.440257 70.611772 70.611772 0 0 1 10.634303 53.596887l5.529838-5.529838a72.738632 72.738632 0 0 1 91.455005-9.358186 70.186399 70.186399 0 0 1 28.499932 71.462515l5.529837-5.529837a73.164004 73.164004 0 0 1 91.455006-9.358187 71.462516 71.462516 0 0 1 29.776048 71.462516l5.529837-5.104465a71.462516 71.462516 0 0 1 85.074424-11.059675 70.611772 70.611772 0 0 1 24.246211 96.984842c-2.977605 4.253721-5.529838 8.08207-8.082071 11.059675L1037.907967 215.27529900000002 688.677458 640.647416a12.335791 12.335791 0 0 1-14.462652 2.552233l-167.171242-91.455005a209.283082 209.283082 0 0 0-175.253312-13.186536 112.298239 112.298239 0 0 0-68.910283 67.208795 119.529565 119.529565 0 0 0 11.910419 95.708726 15.738768 15.738768 0 0 1-6.380582 21.693978 18.716373 18.716373 0 0 1-8.08207 0H32.328281a31.902909 31.902909 0 0 1-32.328281-29.776048v-448.767584a45.514817 45.514817 0 0 1 39.134235-29.776048zM281.596342 247.17820800000004a60.402841 60.402841 0 0 1-77.843098-16.164141L156.536939 172.73808699999995a59.552096 59.552096 0 0 1 8.08207-85.074423l6.805954-5.104466a61.678957 61.678957 0 0 1 65.932679-5.529837h3.828349v-2.977605a60.402841 60.402841 0 0 1 21.693978-57.850608l5.529837-3.828349a62.104329 62.104329 0 0 1 64.656562-6.805954A2.552233 2.552233 0 0 0 340.297694 2.589240000000018a60.828213 60.828213 0 0 1 22.970094-53.596887l4.253722-2.977605a56.14912 56.14912 0 0 1 64.656561-5.104465 2.552233 2.552233 0 0 0 3.828349 0 63.380446 63.380446 0 0 1 22.970095-37.432746h2.977605a59.977469 59.977469 0 0 1 85.074423 11.059675 47.641677 47.641677 0 0 0 5.529838 6.805954l8.08207 14.462652a60.828213 60.828213 0 0 1-76.992353 87.626656h-2.552233a62.104329 62.104329 0 0 1-56.574492 63.380445 69.335655 69.335655 0 0 1-24.24621-4.253721c-9.358187 0-6.805954 6.805954-6.805954 6.805954a59.977469 59.977469 0 0 1-32.328281 78.26847 60.828213 60.828213 0 0 1-51.044654-2.552233c-6.805954 0-5.529838 5.104465-5.529838 5.104465a55.298375 55.298375 0 0 1-20.417861 78.26847z"  horiz-adv-x="1326" />

    
    <glyph glyph-name="usergroup" unicode="&#58896;" d="M337.73568 883.72736a191.6416 191.6416 0 0 0 45.40416-5.4784 223.58528 223.58528 0 0 0 42.48064-14.72512 192.06656 192.06656 0 0 0 35.34848-21.04832 127.47776 127.47776 0 0 0 23.99744-23.5776 185.8304 185.8304 0 0 0 30.16192-59.3152 436.13696 436.13696 0 0 0 6.58432-25.30816c-24.27392-9.79968-30.25408-14.91968-46.73024-26.68544-13.74208-12.65152-22.5024-20.71552-33.73056-38.30272-8.45312-10.5728-20.13184-36.8128-24.97024-55.552-2.176-8.2688-9.88672-39.81824-11.35616-58.05056-1.04448-8.97024-4.29056-31.36512-3.24096-63.9488-4.56192-6.0416-7.65952-11.38176-10.37824-17.67424-2.28352-6.71744-3.1744-12.17024-4.21888-20.20864-0.85504-9.856 0.4352-13.89568 3.56864-25.94304 4.06528-12.38016 3.48672-10.9824 9.40544-21.89312 8.57088-12.74368 15.58016-15.1808 21.40672-17.67424 2.53952-9.14432 7.7824-26.91584 7.7824-26.91584s4.864-12.03712 8.7552-21.46304c5.66784-12.12416 11.02848-16.4096 11.02848-16.4096s13.0048-11.77088 24.64256-23.15264c3.36896-4.04992 12.2368-13.99808 12.6464-30.71488 1.29536-13.184 0.9728-10.95168 0.9728-24.4224 0.0512-10.5472-1.00352-11.84768-4.21888-21.04832-3.2-6.78912-5.48864-12.38016-12.6464-20.20352-5.9648-6.73792-13.44-13.62944-25.29792-21.04832-10.42432-6.96832-25.46688-15.60576-48.9728-21.89312-18.3296-4.7104-31.80032-9.56416-53.50912-17.24928-25.25184-10.85952-27.21792-13.14816-41.56416-23.11168-26.21952-20.87424-27.03872-52.35712-26.86464-50.37568s-2.78016-19.01056-3.61984-27.03872c-16.0512 1.024-32.384 2.28864-49.3056 3.82976a2403.26144 2403.26144 0 0 0-64.5376 6.74816 1468.20096 1468.20096 0 0 0-58.37312 7.97696c-17.5104 2.7904-32.10752 5.61152-44.43136 8.43264a58.37312 58.37312 0 0 0-22.70208 8.43264 74.06592 74.06592 0 0 0-12.32384 41.22112 333.73184 333.73184 0 0 0 3.56864 89.216 70.912 70.912 0 0 0 23.3472 47.54432 152.14592 152.14592 0 0 0 45.07648 25.94304 585.8304 585.8304 0 0 0 53.50912 17.24928c17.408 4.59264 33.9456 11.9808 48.9728 21.89312a115.77344 115.77344 0 0 1 25.29792 21.04832 69.05856 69.05856 0 0 1 12.6464 20.20352c2.85184 6.65088 4.28544 13.81888 4.21888 21.04832a344.5248 344.5248 0 0 1-0.9728 24.4224 47.18592 47.18592 0 0 1-12.6464 30.71488 436.51072 436.51072 0 0 1-24.64256 23.15264 51.90656 51.90656 0 0 0-11.02848 16.4096c-2.9184 7.00416-5.8368 14.1568-8.7552 21.46304a843.40736 843.40736 0 0 0-7.7824 26.91584 35.28192 35.28192 0 0 0-11.02336 5.90336 66.01216 66.01216 0 0 0-10.37824 11.77088 70.43072 70.43072 0 0 0-9.40544 21.89312 59.01312 59.01312 0 0 0-3.56864 25.94304 81.92 81.92 0 0 0 4.21888 20.20864 55.90016 55.90016 0 0 0 10.37824 17.67424 421.74976 421.74976 0 0 0 3.24096 63.9488 392.68864 392.68864 0 0 0 11.35616 58.05056 181.0176 181.0176 0 0 0 24.97024 55.552 155.6736 155.6736 0 0 0 33.73056 38.30272 168.15616 168.15616 0 0 0 37.94432 23.15264 157.69088 157.69088 0 0 0 38.91712 11.35104 248.88832 248.88832 0 0 0 37.62176 2.94912v-0.13312z m0 0M677.78048 725.71904a191.6416 191.6416 0 0 0 45.40416-5.4784 223.58528 223.58528 0 0 0 42.48064-14.72512 192.06656 192.06656 0 0 0 35.34848-21.04832 127.47776 127.47776 0 0 0 23.99744-23.5776 185.8304 185.8304 0 0 0 30.16192-59.3152 433.79712 433.79712 0 0 0 13.29664-61.84448c2.87232-22.58432 4.28032-45.33248 4.21376-68.10112a32.08704 32.08704 0 0 0 8.76032-10.92608c2.24256-4.83328 3.87072-9.91744 4.864-15.14496 1.39776-7.49056 1.61792-15.15008 0.65024-22.70208a92.76928 92.76928 0 0 0-6.8096-28.18048 58.5984 58.5984 0 0 0-11.6736-16.4096 38.12864 38.12864 0 0 0-14.91968-9.2416 839.552 839.552 0 0 0-7.7824-26.91584c-2.92352-7.296-5.84192-14.43328-9.08288-21.46304a58.43968 58.43968 0 0 0-11.67872-16.4096 820.1472 820.1472 0 0 1-24.64256-21.46816 52.22912 52.22912 0 0 1-12.6464-29.87008 113.00864 113.00864 0 0 1-1.62304-25.6512 77.91104 77.91104 0 0 1 6.8096-25.94816 81.54112 81.54112 0 0 1 18.16064-24.8064 114.50368 114.50368 0 0 1 34.70336-21.04832 362.74176 362.74176 0 0 1 43.13088-15.14496 467.15904 467.15904 0 0 0 45.40416-15.56992 161.49504 161.49504 0 0 0 39.23968-21.89312 70.97856 70.97856 0 0 0 24.32512-35.67104 188.61056 188.61056 0 0 0 5.8368-33.23904c1.29536-13.184 1.9456-26.51648 1.9456-39.98208a232.2432 232.2432 0 0 0-2.9184-37.87776 75.25376 75.25376 0 0 0-8.10496-26.91584 46.53568 46.53568 0 0 0-22.70208-11.776 439.97184 439.97184 0 0 0-45.7216-11.35104c-18.48832-3.6352-38.58944-6.87104-61.29664-9.728a1752.58624 1752.58624 0 0 0-67.45088-7.168 2052.4544 2052.4544 0 0 0-65.5104-4.63872c-20.75648-1.13152-38.91712-1.68448-54.15936-1.68448-15.24224 0-33.08032 0.55296-53.50912 1.68448-20.43392 1.13664-41.1904 2.6624-62.91456 4.63872a2403.26144 2403.26144 0 0 0-64.5376 6.74816 1468.20096 1468.20096 0 0 0-58.37312 7.97696c-17.5104 2.7904-32.10752 5.61152-44.43136 8.43264a58.37312 58.37312 0 0 0-22.70208 8.43264 74.06592 74.06592 0 0 0-12.32384 41.22112 333.73184 333.73184 0 0 0 3.56864 89.216 70.912 70.912 0 0 0 23.3472 47.54432 152.14592 152.14592 0 0 0 45.07648 25.94304 585.8304 585.8304 0 0 0 53.50912 17.24928c17.408 4.59264 33.9456 11.9808 48.9728 21.89312a115.77344 115.77344 0 0 1 25.29792 21.04832 69.05856 69.05856 0 0 1 12.6464 20.20352c2.85184 6.65088 4.28544 13.81888 4.21888 21.04832a344.5248 344.5248 0 0 1-0.9728 24.4224 47.18592 47.18592 0 0 1-12.6464 30.71488 436.51072 436.51072 0 0 1-24.64256 23.15264 51.90656 51.90656 0 0 0-11.02848 16.4096c-2.9184 7.00416-5.8368 14.1568-8.7552 21.46304a843.40736 843.40736 0 0 0-7.7824 26.91584 35.28192 35.28192 0 0 0-11.02336 5.90336 66.01216 66.01216 0 0 0-10.37824 11.77088 70.43072 70.43072 0 0 0-9.40544 21.89312 59.01312 59.01312 0 0 0-3.56864 25.94304 81.92 81.92 0 0 0 4.21888 20.20864 55.90016 55.90016 0 0 0 10.37824 17.67424 421.74976 421.74976 0 0 0 3.24096 63.9488 392.68864 392.68864 0 0 0 11.35616 58.05056 181.0176 181.0176 0 0 0 24.97024 55.552 155.6736 155.6736 0 0 0 33.73056 38.30272 168.15616 168.15616 0 0 0 37.94432 23.15264 157.69088 157.69088 0 0 0 38.91712 11.35104 248.88832 248.88832 0 0 0 37.62176 2.94912v-0.14336z m0 0"  horiz-adv-x="1024" />

    
    <glyph glyph-name="basicInfo" unicode="&#58932;" d="M729.6 486.4h243.2c12.8 0 25.6 12.8 25.6 25.6s-12.8 25.6-25.6 25.6h-243.2c-12.8 6.4-25.6-6.4-25.6-25.6 0-12.8 12.8-25.6 25.6-25.6zM979.2 409.6h-192c-12.8 0-25.6-12.8-25.6-25.6s12.8-25.6 25.6-25.6h192c12.8 0 25.6 12.8 25.6 25.6 0 19.2-12.8 25.6-25.6 25.6zM979.2 294.4h-134.4c-12.8 0-25.6-12.8-25.6-25.6s12.8-25.6 25.6-25.6h134.4c12.8 0 25.6 12.8 25.6 25.6s-12.8 25.6-25.6 25.6zM748.8 166.39999999999998l-6.4 6.4c-6.4 6.4-12.8 6.4-19.2 12.8-12.8 6.4-25.6 12.8-44.8 19.2l-38.4 19.2c-25.6 12.8-102.4 44.8-134.4 57.6v12.8c32 25.6 51.2 83.2 57.6 108.8 25.6 19.2 32 57.6 32 70.4 6.4 12.8 0 32-6.4 44.8 0 0 0 6.4-6.4 6.4 0 12.8 6.4 19.2 6.4 32v6.4V576c0 89.6-76.8 153.6-185.6 153.6S217.6 665.6 217.6 576V556.8c0-12.8 0-19.2 6.4-32 0 0 0-6.4-6.4-6.4-6.4-6.4-12.8-25.6-6.4-44.8 0-25.6 12.8-51.2 32-70.4 6.4-25.6 25.6-83.2 57.6-102.4v-12.8c-32-12.8-108.8-51.2-134.4-64-19.2-6.4-32-12.8-44.8-19.2-70.4-32-102.4-44.8-102.4-134.4v-12.8c0-12.8 6.4-25.6 25.6-25.6H761.6c19.2 0 19.2 12.8 25.6 25.6v12.8c0 38.4-6.4 64-25.6 83.2-6.4 12.8-6.4 12.8-12.8 12.8zM70.4 83.20000000000005c0 51.2 12.8 51.2 70.4 83.2 12.8 6.4 25.6 12.8 44.8 19.2 32 12.8 128 57.6 140.8 64l12.8 6.4v12.8s6.4 32 0 57.6v6.4h-6.4c-12.8 6.4-38.4 64-44.8 89.6v12.8l-12.8 6.4S262.4 448 256 486.4l-6.4 6.4h32l-6.4 32c-6.4 12.8-6.4 25.6-6.4 38.4v25.6c0 76.8 70.4 102.4 134.4 102.4s134.4-25.6 134.4-102.4v-25.6c0-12.8 0-25.6-6.4-38.4l-12.8-25.6h32v-6.4c-6.4-44.8-19.2-51.2-19.2-51.2l-12.8-6.4v-12.8c0-25.6-25.6-83.2-44.8-89.6l-6.4-6.4V320c-6.4-25.6 0-57.6 0-57.6v-12.8l12.8-6.4s108.8-44.8 140.8-64c12.8-6.4 32-12.8 38.4-19.2 19.2-6.4 32-12.8 44.8-19.2 6.4 0 6.4-6.4 12.8-6.4l6.4-6.4c6.4-6.4 12.8-19.2 12.8-44.8H70.4z"  horiz-adv-x="1024" />

    
    <glyph glyph-name="lunwen" unicode="&#58901;" d="M291.3-63c-37.9 0-69.2 4.7-93 14-16.4 6.4-29.4 15.1-38.7 25.8-11.4 13.1-17.1 28.9-17.2 46.8 0 19.8 7.9 38.2 22.8 53.2 14.8 14.9 36.2 26.4 63.4 34.2 22.3 6.4 47.8 9.9 71.8 9.9v-46c-42.5 0-84.7-12.6-102.6-30.6-6.4-6.4-9.4-13-9.4-20.6 0-9.1 3.1-20.7 26.6-29.9 18.2-7.1 44.6-10.8 76.3-10.8 23.7 0 89.3 16.1 104.9 23.4l19.6-41.6c-20.4-9.6-93.6-27.8-124.5-27.8zM168 683.8c-2.6 0-5.3 0.4-7.9 1.4-11.9 4.4-18.1 17.6-13.7 29.5 4.7 12.9 18.8 35.5 60.8 41.3 25.9 3.6 56.5-0.4 86.3-11.3 11.9-4.3 18.1-17.5 13.7-29.5-4.3-11.9-17.5-18.1-29.5-13.7-47.7 17.4-84.2 8.2-88.1-2.5-3.4-9.4-12.2-15.2-21.6-15.2zM163.9 4.5c-12.8 0-23 10.4-23 23.1v0.1c0.9 225 1.5 393.7 1.9 506.2l0.7 168.6c0.1 12.7 10.4 23 23 23 12.7 0 23-10.3 23-23 0-3.2-0.8-224-2.6-675.1 0-12.6-10.3-22.9-23-22.9zM370 63.799999999999955h46v-99.6h-46zM802 64H343c-39.1 0-71 31.9-71 71V695c0 39.1 31.9 71 71 71h459c39.1 0 71-31.9 71-71v-560c0-39.1-31.9-71-71-71zM343 720c-13.8 0-25-11.2-25-25v-560c0-13.8 11.2-25 25-25h459c13.8 0 25 11.2 25 25V695c0 13.8-11.2 25-25 25H343zM429 669h189c17.7 0 32-14.3 32-32s-14.3-32-32-32H429c-17.7 0-32 14.3-32 32s14.3 32 32 32zM415 540h335c12.7 0 23-10.3 23-23s-10.3-23-23-23H415c-12.7 0-23 10.3-23 23s10.3 23 23 23zM415 429h335c12.7 0 23-10.3 23-23s-10.3-23-23-23H415c-12.7 0-23 10.3-23 23s10.3 23 23 23zM415 318h335c12.7 0 23-10.3 23-23s-10.3-23-23-23H415c-12.7 0-23 10.3-23 23s10.3 23 23 23zM420 207h335c12.7 0 23-10.3 23-23s-10.3-23-23-23H420c-12.7 0-23 10.3-23 23s10.3 23 23 23z"  horiz-adv-x="1024" />

    
    <glyph glyph-name="gonggao" unicode="&#59013;" d="M781.6 552.2L562.5 727.5c-6.3 5-7.3 14.2-2.3 20.5 5 6.3 14.2 7.3 20.5 2.3L800.2 575c10.8-8.6 4.7-25.9-9.1-25.9h-0.4c-3.3-0.1-6.5 1.1-9.1 3.1zM244.2 552.2l219.1 175.3c6.3 5 7.3 14.2 2.3 20.5-5 6.3-14.2 7.3-20.5 2.3L225.6 575c-10.8-8.6-4.7-25.9 9.1-25.9h0.4c3.3-0.1 6.6 1.1 9.1 3.1zM554.9 790c0-23.2-18.8-42.1-42-42.1s-42.1 18.8-42.1 42.1c0 23.2 18.8 42.1 42.1 42.1 23.2 0 42-18.8 42-42.1zM915 532.2H110.8c-25.2 0-45.6-20.4-45.6-45.6v-505.3c0-25.2 20.4-45.6 45.6-45.6H915c25.2 0 45.6 20.4 45.6 45.6V486.7c0 25.1-20.4 45.5-45.6 45.5zM933 6c0-25.2-20.4-45.6-45.6-45.6h-749c-25.2 0-45.6 20.4-45.6 45.6V462.1c0 25.2 20.4 45.6 45.6 45.6h748.9c25.2 0 45.6-20.4 45.6-45.6V6zM844.3 465.3H181.5c-25.2 0-45.6-20.4-45.6-45.6v-371.4c0-25.2 20.4-45.6 45.6-45.6h662.8c25.2 0 45.6 20.4 45.6 45.6V419.7c0 25.2-20.4 45.6-45.6 45.6z m-498.1-51.1h333.4c12.9 0 23.3-10.4 23.3-23.3s-10.4-23.3-23.3-23.3H346.2c-12.9 0-23.3 10.4-23.3 23.3s10.4 23.3 23.3 23.3z m436.7-337.1c0-12.9-10.4-23.3-23.3-23.3H266.2c-12.9 0-23.3 10.4-23.3 23.3s10.4 23.3 23.3 23.3h493.4c12.9 0 23.3-10.4 23.3-23.3z m0 104.6c0-12.9-10.4-23.3-23.3-23.3H266.2c-12.9 0-23.3 10.4-23.3 23.3s10.4 23.3 23.3 23.3h493.4c12.9 0 23.3-10.4 23.3-23.3z m0 104.6c0-12.9-10.4-23.3-23.3-23.3H266.2c-12.9 0-23.3 10.4-23.3 23.3s10.4 23.3 23.3 23.3h493.4c12.9 0 23.3-10.4 23.3-23.3z"  horiz-adv-x="1024" />

    
    <glyph glyph-name="xingbie" unicode="&#58925;" d="M370.667 362.494H515.324v-34H370.668v-180.507h-34V328.494H187v34h149.667v86.661C256.093 459.62 193.862 528.49 193.862 611.89c0 90.635 73.498 164.11 164.162 164.11 90.665 0 164.163-73.475 164.163-164.11 0-86.383-66.763-157.178-151.52-163.631v-85.765z m-12.643 122.523c70.092 0 126.913 56.803 126.913 126.873 0 70.07-56.821 126.872-126.913 126.872S231.112 681.959 231.112 611.89c0-70.07 56.82-126.873 126.912-126.873zM650.592 319.5V543.339l-136.65-134.592L489 435.406l180.667 185.608 167.816-187.607-29.376-24.66-123.515 134.591v-224.232c81.753-9.377 145.243-78.784 145.243-163.014 0-90.626-73.498-164.092-164.162-164.092-90.665 0-164.163 73.466-164.163 164.092 0 85.543 65.487 155.798 149.082 163.409z m15.08-292.741c71.46 0 129.39 57.904 129.39 129.333s-57.93 129.333-129.39 129.333c-71.458 0-129.388-57.904-129.388-129.333s57.93-129.333 129.389-129.333z"  horiz-adv-x="1024" />

    
    <glyph glyph-name="tuozhuaiX" unicode="&#59154;" d="M332 864h120v-120H332zM572 864h120v-120H572zM332 583.98h120v-120H332zM572 583.98h120v-120H572zM332 304.02h120v-120H332zM572 304.02h120v-120H572zM332 24h120v-120H332zM572 24h120v-120H572z"  horiz-adv-x="1024" />

    
    <glyph glyph-name="shejiao" unicode="&#58898;" d="M1351.217557-128a29.691379 29.691379 0 0 0-13.268335 3.136152l-201.623023 100.653776H643.115275a49.232018 49.232018 0 0 0-49.176347 49.176347V505.743934a49.232018 49.232018 0 0 0 49.176347 49.176347h792.555699a49.232018 49.232018 0 0 0 49.176347-49.176347v-480.777659a49.232018 49.232018 0 0 0-49.176347-49.176347h-54.762038v-74.098549a29.691379 29.691379 0 0 0-29.691379-29.691379z m-697.89587 163.172686h490.019101a29.839836 29.839836 0 0 0 13.249778-3.117595l164.935611-82.356463v55.782679a29.691379 29.691379 0 0 0 29.69138 29.691379h74.228448V495.537522H653.321687zM385.987931 272.314021h571.744622a22.268534 22.268534 0 0 1 22.268534 22.268535V844.040086a22.268534 22.268534 0 0 1-22.268534 22.268535H51.959914a22.268534 22.268534 0 0 1-22.268535-22.268535v-549.45753a22.268534 22.268534 0 0 1 22.268535-22.268535h96.496982V153.71551799999997zM148.456896 124.02413899999999a29.691379 29.691379 0 0 0-29.691379 29.691379v88.907124H51.959914a51.959914 51.959914 0 0 0-51.959914 51.959914V844.040086A51.959914 51.959914 0 0 0 51.959914 896h905.772639a51.959914 51.959914 0 0 0 51.959914-51.959914v-549.45753a51.959914 51.959914 0 0 0-51.959914-51.959914H393.05819L161.743789 127.12317599999994A29.821279 29.821279 0 0 0 148.456896 124.02413899999999z m-89.074137 177.981261h89.074137a29.691379 29.691379 0 0 0 29.69138-29.691379v-70.609811l194.626991 97.165038a29.691379 29.691379 0 0 0 13.268335 3.136152H950.309708V836.617241H59.382759zM326.697958 539.851906H207.839655a29.691379 29.691379 0 1 0 0 59.382758h118.858303a29.691379 29.691379 0 0 0 0-59.382758zM564.266106 539.851906H445.370689a29.691379 29.691379 0 0 0 0 59.382758h118.765517a29.691379 29.691379 0 0 0 0-59.382758zM801.852812 539.851906h-118.858303a29.691379 29.691379 0 0 0 0 59.382758h118.858303a29.691379 29.691379 0 0 0 0-59.382758z"  horiz-adv-x="1484" />

    
    <glyph glyph-name="jiatingguanxi" unicode="&#59115;" d="M341.5 448.2c-75 0-136 61-136 136s61 136 136 136 136-61 136-136-61-136-136-136z m0 208c-39.7 0-72-32.3-72-72s32.3-72 72-72 72 32.3 72 72-32.3 72-72 72zM685.3 443.2c-75 0-136 61-136 136s61 136 136 136 136-61 136-136-61-136-136-136z m0 208c-39.7 0-72-32.3-72-72s32.3-72 72-72 72 32.3 72 72-32.3 72-72 72zM96.1 139.8c-17.7 0-32 14.3-32 32 0 73.7 28.7 143 80.8 195.1C197 419 266.3 447.7 340 447.7c42.9 0 84-9.6 122.2-28.5 15.8-7.8 22.3-27 14.5-42.9s-27-22.3-42.9-14.5c-29.3 14.5-60.9 21.9-93.8 21.9-116.8 0-211.9-95.1-211.9-211.9 0-17.7-14.3-32-32-32zM927.7 134.8c-17.7 0-32 14.3-32 32 0 116.8-95.1 211.9-211.9 211.9-32.9 0-64.3-7.3-93.5-21.7-15.9-7.8-35-1.3-42.9 14.5-7.8 15.9-1.3 35 14.5 42.9 38.1 18.8 79.1 28.3 121.8 28.3 73.7 0 143-28.7 195.1-80.8 52.1-52.1 80.8-121.4 80.8-195.1 0.1-17.7-14.2-32-31.9-32zM511 266.6c-54.5 0-98.9 44.4-98.9 98.9s44.4 98.9 98.9 98.9 98.9-44.4 98.9-98.9-44.4-98.9-98.9-98.9z m0 133.8c-19.2 0-34.9-15.7-34.9-34.9s15.7-34.9 34.9-34.9 34.9 15.7 34.9 34.9-15.7 34.9-34.9 34.9zM666.1 46.8c-17.7 0-32 14.3-32 32 0 67.9-55.2 123.1-123.1 123.1-67.9 0-123.1-55.2-123.1-123.1 0-17.7-14.3-32-32-32s-32 14.3-32 32c0 103.2 83.9 187.1 187.1 187.1 103.2 0 187.1-83.9 187.1-187.1 0-17.7-14.3-32-32-32z"  horiz-adv-x="1024" />

    
    <glyph glyph-name="gengduo" unicode="&#58880;" d="M36.571429 822.857143h1097.142857a36.571429 36.571429 0 0 1 0 73.142857H36.571429a36.571429 36.571429 0 0 1 0-73.142857zM1133.714286 424.96H36.571429a36.571429 36.571429 0 0 1 0-73.142857h1097.142857a36.571429 36.571429 0 0 1 0 73.142857zM1133.714286-54.85714299999995H36.571429a36.571429 36.571429 0 0 1 0-73.142857h1097.142857a36.571429 36.571429 0 0 1 0 73.142857z"  horiz-adv-x="1170" />

    
    <glyph glyph-name="huanjie" unicode="&#58909;" d="M622.1 139.60000000000002h55.1v-51h-55.1zM897.5 281.4H787.3V364c0 30.4-24.7 55.1-55.1 55.1H539.5v82.6h82.6c30.4 0 55.1 24.7 55.1 55.1V777c0 30.4-24.7 55.1-55.1 55.1H401.9c-30.4 0-55.1-24.7-55.1-55.1v-220.3c0-30.4 24.7-55.1 55.1-55.1h82.6V419H291.7c-30.4 0-55.1-24.7-55.1-55.1v-82.6H126.5c-30.4 0-55.1-24.7-55.1-55.1v-220.3c0-30.4 24.7-55.1 55.1-55.1h220.3c30.4 0 55.1 24.7 55.1 55.1v2.6h-55.1v-2.6H126.5V226.29999999999995h205.2l45.7 45.7c-8.8 5.9-19.3 9.3-30.7 9.3h-55.1V364h440.5v-82.6H677c-30.4 0-55.1-24.7-55.1-55.1v-8.2H677v8.2h220.3V6H694l-46.4-46.4c8.6-5.5 18.7-8.7 29.6-8.7h220.3c30.4 0 55.1 24.7 55.1 55.1V226.29999999999995c-0.1 30.4-24.7 55.1-55.1 55.1zM401.9 556.7V777h220.3v-220.3H401.9zM346.8 139.60000000000002h55.1v-51h-55.1z m-32.5 34v-2.6c0-1.3 0-1.3 1.3-2.6 0-1.3 1.3-1.3 1.3-2.6s1.3-1.3 1.3-2.6c1.3-1.3 2.6-2.6 2.6-3.9 1.3-1.3 2.6-2.6 3.9-2.6 1.3 0 1.3-1.3 2.6-1.3s1.3-1.3 2.6-1.3 1.3 0 2.6-1.3h348.2c14.4 0 26.2 11.8 26.2 26.2s-11.6 26-26 26H403.4l28.8 28.8c10.5 10.5 10.5 26.2 0 36.7-9.2 11.8-26.2 11.8-36.7 1.3l-74.6-74.6-3.9-3.9s-1.3-1.3-1.3-2.6-1.3-1.3-1.3-2.6 0-1.3-1.3-2.6c0-1.3 0-1.3-1.3-2.6 2.5-2.8 2.5-5.4 2.5-9.3z m386.2-142.7l3.9 3.9 1.3 1.3c0 1.3 1.3 1.3 1.3 2.6s0 1.3 1.3 2.6c0 1.3 0 1.3 1.3 2.6V57c0 1.3 0 1.3-1.3 2.6 0 1.3-1.3 1.3-1.3 2.6s-1.3 1.3-1.3 2.6c-1.3 1.3-2.6 2.6-2.6 3.9-1.3 1.3-2.6 2.6-3.9 2.6-3.9-1.3-5.2-1.3-6.5 0-1.3 0-1.3 1.3-2.6 1.3s-1.3 0-2.6 1.3h-347c-14.4 0-26.2-11.8-26.2-26.2 0-14.4 11.8-26.2 26.2-26.2H618L589.2-7c-10.5-10.5-10.5-26.2 0-36.7s26.2-10.5 36.7 0l74.6 74.6z"  horiz-adv-x="1024" />

    
    <glyph glyph-name="disabled" unicode="&#59050;" d="M896 384a384 384 0 1 1-384-384 384 384 0 0 1 384 384z m64 0A448 448 0 1 0 512 832a448 448 0 0 0 448-448zM232.64 649.92a32 32 0 1 0 46.72 44.16l544-576a32 32 0 1 0-46.72-44.16z"  horiz-adv-x="1024" />

    
    <glyph glyph-name="jiben" unicode="&#58902;" d="M341.333333 42.66666699999996H102.4V725.333333h750.933333v-136.533333c0-20.48 13.653333-34.133333 34.133334-34.133333s34.133333 13.653333 34.133333 34.133333V725.333333c0 37.546667-30.72 68.266667-68.266667 68.266667H102.4c-37.546667 0-68.266667-30.72-68.266667-68.266667v-682.666666c0-37.546667 30.72-68.266667 68.266667-68.266667h238.933333c20.48 0 34.133333 13.653333 34.133334 34.133333s-13.653333 34.133333-34.133334 34.133334zM795.306667 274.773333c34.133333 23.893333 58.026667 64.853333 58.026666 109.226667 0 75.093333-61.44 136.533333-136.533333 136.533333s-136.533333-61.44-136.533333-136.533333c0-44.373333 23.893333-85.333333 58.026666-109.226667-139.946667-30.72-194.56-136.533333-194.56-232.106666 0-20.48 13.653333-34.133333 34.133334-34.133334s34.133333 13.653333 34.133333 34.133334c0 40.96 13.653333 170.666667 204.8 170.666666 95.573333 0 204.8-44.373333 204.8-170.666666 0-20.48 13.653333-34.133333 34.133333-34.133334s34.133333 13.653333 34.133334 34.133334c0 119.466667-75.093333 204.8-194.56 232.106666zM716.8 452.266667c37.546667 0 68.266667-30.72 68.266667-68.266667s-30.72-68.266667-68.266667-68.266667-68.266667 30.72-68.266667 68.266667 30.72 68.266667 68.266667 68.266667zM614.4 554.666667c0 20.48-13.653333 34.133333-34.133333 34.133333H238.933333c-20.48 0-34.133333-13.653333-34.133333-34.133333s13.653333-34.133333 34.133333-34.133334h341.333334c20.48 0 34.133333 13.653333 34.133333 34.133334zM238.933333 418.133333c-20.48 0-34.133333-13.653333-34.133333-34.133333s13.653333-34.133333 34.133333-34.133333h170.666667c20.48 0 34.133333 13.653333 34.133333 34.133333s-13.653333 34.133333-34.133333 34.133333H238.933333zM409.6 247.46666700000003H238.933333c-20.48 0-34.133333-13.653333-34.133333-34.133334s13.653333-34.133333 34.133333-34.133333h170.666667c20.48 0 34.133333 13.653333 34.133333 34.133333s-13.653333 34.133333-34.133333 34.133334z"  horiz-adv-x="1024" />

    
    <glyph glyph-name="shengri" unicode="&#58905;" d="M873.4 23.8V450.9c0 22.9-18.5 41.4-41.4 41.4H672.6v174c0 14.8-12 26.8-26.8 26.8s-26.8-12-26.8-26.8v-174h-80.3v174c0 14.8-12 26.8-26.8 26.8s-26.8-12-26.8-26.8v-174h-80.3v174c0 14.8-12 26.8-26.8 26.8s-26.8-12-26.8-26.8v-174H191.9c-22.9 0-41.4-18.5-41.4-41.4v-427.1H125c-14.8 0-26.8-12-26.8-26.8s12-26.8 26.8-26.8h774c14.8 0 26.8 12 26.8 26.8s-12 26.8-26.8 26.8h-25.6z m-522 415h447.8c11.4 0 20.7-9.3 20.7-20.7v-287.2H204.1V418.1c0 11.4 9.3 20.7 20.7 20.7h126.6z m-147.3-415v53.5h615.8v-53.5H204.1z m174 774c14.8 0 26.8-12 26.8-26.8v-26.8c0-14.8-12-26.8-26.8-26.8s-26.8 12-26.8 26.8V771c0.1 14.8 12 26.8 26.8 26.8z m133.9 0c14.8 0 26.8-12 26.8-26.8v-26.8c0-14.8-12-26.8-26.8-26.8s-26.8 12-26.8 26.8V771c0 14.8 12 26.8 26.8 26.8z m133.9 0c14.8 0 26.8-12 26.8-26.8v-26.8c0-14.8-12-26.8-26.8-26.8s-26.8 12-26.8 26.8V771c0 14.8 12 26.8 26.8 26.8z m-26.8 0"  horiz-adv-x="1024" />

    
    <glyph glyph-name="ganbu" unicode="&#58985;" d="M512 832c129.408 0 234.688-93.632 234.688-208.704 0-66.88-36.864-130.304-98.688-169.664l-86.592-55.168 87.616-53.44c124.544-76.032 222.016-243.52 242.816-407.872H132.096c20.864 164.352 118.272 331.904 242.816 407.872l87.616 53.44L376 453.568c-61.76 39.424-98.688 102.848-98.688 169.728C277.312 738.368 382.592 832 512 832m0 64C347.072 896 213.312 773.824 213.312 623.296c0-92.672 50.88-174.336 128.256-223.68C178.688 300.224 64 72.384 64-126.848h896c0 199.232-114.752 427.072-277.632 526.528 77.376 49.344 128.256 130.944 128.256 223.68C810.688 773.824 676.864 896 512 896z m6.016-673.664l48.384-107.84-48.384-35.264-48.384 35.264 48.384 107.84m0 156.352l-128-285.312 128-93.312 128 93.312-128 285.312z"  horiz-adv-x="1024" />

    
    <glyph glyph-name="lianjie" unicode="&#58888;" d="M627.2 224l-272 272c-12.8 12.8-12.8 32 0 44.8 12.8 12.8 32 12.8 44.8 0l272-272c12.8-12.8 12.8-32 0-44.8-12.8-12.8-32-12.8-44.8 0zM396.8 384c-9.6 9.6-25.6 12.8-35.2 6.4-35.2-16-80-9.6-108.8 19.2l-147.2 147.2c-38.4 38.4-38.4 99.2 0 134.4l99.2 99.2c38.4 38.4 99.2 38.4 134.4 0l147.2-147.2c28.8-28.8 35.2-73.6 19.2-108.8-6.4-12.8-6.4-28.8 6.4-38.4 16-16 41.6-9.6 51.2 9.6 28.8 60.8 19.2 134.4-28.8 185.6L384 835.2c-64 64-163.2 64-227.2 0L60.8 736c-64-64-64-163.2 0-227.2l147.2-147.2c48-48 121.6-57.6 182.4-32 16 12.8 22.4 38.4 6.4 54.4zM604.8 406.4c9.6-9.6 25.6-12.8 35.2-6.4 35.2 16 80 9.6 108.8-19.2l147.2-147.2c38.4-38.4 38.4-99.2 0-134.4L796.8 0c-38.4-38.4-99.2-38.4-134.4 0l-147.2 147.2c-28.8 28.8-35.2 73.6-19.2 108.8 6.4 12.8 6.4 28.8-6.4 38.4-16 16-41.6 9.6-51.2-9.6-28.8-60.8-19.2-134.4 28.8-185.6l147.2-147.2c64-64 163.2-64 227.2 0l99.2 99.2c64 64 64 163.2 0 227.2l-147.2 147.2c-48 48-121.6 57.6-182.4 32-16-9.6-22.4-35.2-6.4-51.2z"  horiz-adv-x="1024" />

    
    <glyph glyph-name="rewards" unicode="&#58931;" d="M505.6 236.79999999999995c-134.4 0-240 108.8-240 240s108.8 240 240 240 240-108.8 240-240-105.6-240-240-240z m0 444.8c-112 0-204.8-92.8-204.8-204.8s92.8-204.8 204.8-204.8 204.8 92.8 204.8 204.8-92.8 204.8-204.8 204.8zM336-92.79999999999995c-3.2 0-3.2 0 0 0-9.6 0-16 6.4-19.2 12.8l-32 115.2-115.2-32c-6.4-3.2-16 0-19.2 6.4-3.2 6.4-6.4 12.8-3.2 19.2l118.4 208 9.6 9.6c3.2 0 9.6 0 12.8-3.2l169.6-96c9.6-6.4 12.8-16 6.4-25.6L352-86.39999999999998c-3.2-3.2-9.6-6.4-16-6.4z m-38.4 169.6c3.2 0 6.4 0 9.6-3.2l9.6-9.6 25.6-89.6 86.4 153.6-137.6 76.8-86.4-153.6 89.6 25.6h3.2zM678.4-92.79999999999995c-6.4 0-12.8 3.2-16 9.6L544 124.79999999999995c-6.4 9.6-3.2 19.2 6.4 25.6l169.6 96c3.2 3.2 9.6 3.2 12.8 3.2 3.2 0 9.6-3.2 9.6-9.6l118.4-208c3.2-6.4 3.2-16-3.2-19.2-3.2-6.4-12.8-9.6-19.2-6.4l-115.2 32-32-115.2c3.2-9.6-3.2-16-12.8-16z m-92.8 217.6l86.4-153.6 25.6 89.6c0 3.2 3.2 9.6 9.6 9.6 3.2 3.2 9.6 3.2 12.8 3.2l89.6-25.6-86.4 153.6-137.6-76.8zM419.2 326.4c-3.2 0-6.4 0-9.6 3.2-6.4 3.2-9.6 9.6-6.4 16l9.6 86.4-60.8 64c-3.2 6.4-6.4 12.8-3.2 19.2s6.4 9.6 12.8 12.8L448 544l41.6 76.8c6.4 12.8 25.6 12.8 32 0l41.6-76.8 86.4-16c6.4 0 12.8-6.4 12.8-12.8 3.2-6.4 0-12.8-3.2-19.2l-60.8-64 9.6-86.4c0-6.4-3.2-12.8-6.4-16-6.4-3.2-12.8-3.2-19.2-3.2l-80 38.4-80-38.4h-3.2z m86.4 76.8c3.2 0 6.4 0 6.4-3.2l57.6-25.6-6.4 60.8c0 6.4 0 9.6 6.4 16l41.6 44.8-60.8 12.8c-6.4 0-9.6 3.2-12.8 9.6l-28.8 54.4-28.8-54.4c-3.2-3.2-6.4-9.6-12.8-9.6l-60.8-12.8 41.6-44.8c3.2-3.2 6.4-9.6 6.4-16l-6.4-60.8 57.6 25.6c-6.4 3.2-3.2 3.2 0 3.2zM505.6 121.60000000000002c-195.2 0-355.2 160-355.2 355.2S310.4 832 505.6 832 864 675.2 864 480s-160-358.4-358.4-358.4z m0 640c-156.8 0-284.8-128-284.8-284.8s128-284.8 284.8-284.8 284.8 128 284.8 284.8-128 284.8-284.8 284.8z"  horiz-adv-x="1024" />

    
    <glyph glyph-name="kaohe" unicode="&#58943;" d="M713.8 478.9c-12.1 7.7-28.2 4.1-35.9-8L491.2 175.7l-121.9 98.1c-11.2 9-27.6 7.2-36.5-4.1-9-11.3-7.2-27.8 4.1-36.8l144.5-116.2c4.6-3.8 10.4-5.8 16.2-5.8 1.4 0 2.9 0.1 4.3 0.4 7.3 1.2 13.7 5.5 17.7 11.8l202.3 319.7c7.6 12.1 4 28.3-8.1 36.1z m43.8 232.8h-77v23.8h-71.5c-11.8 49.9-54.2 96.3-107.4 96.3s-98.6-46.3-110.4-96.3h-71.5v-23.8h-53.5c-78.1 0-141.6-60.2-141.6-138.7v-494.1c0-78.5 63.5-142.4 141.6-142.4h491.2c78.1 0 141.6 63.9 141.6 142.4V573.1c0.1 78.5-63.4 138.6-141.5 138.6z m-318.8-28.1v34.9c0 33.7 29.5 61.6 63 61.6 33.4 0 58.4-28 58.4-61.6v-34.9h68.3v-113.2H371.7V683.6h67.1z m407.7-604.7c0-49.7-39.5-90-88.9-90H266.4c-49.4 0-89.8 40.3-89.8 90V573.1c0 49.7 40.4 86.2 89.8 86.2h53.5v-141.4h360.7V659.3h77c49.4 0 88.9-36.5 88.9-86.2v-494.2z m0 0"  horiz-adv-x="1024" />

    
    <glyph glyph-name="jiangxu" unicode="&#59231;" d="M433.6 141.20000000000005c0-3.6-1.5-7.1-4.5-10.7L286.8-12c-3-2.7-6.4-4-10.2-4-3.6 0-7 1.3-10.2 4l-143 142.9c-4.5 4.8-5.5 10-3.1 15.6 2.3 5.9 6.9 8.9 13.4 8.9h85.7V769.7c0 4.1 1.3 7.6 4 10.2 2.7 2.7 6.1 4 10.2 4h85.7c4.1 0 7.6-1.3 10.2-4 2.7-2.7 4-6.1 4-10.2v-614.2h85.7c4.1 0 7.6-1.3 10.2-4 2.9-2.7 4.2-6.2 4.2-10.3z m214.2 628.5V684c0-4.1-1.3-7.6-4-10.2-2.7-2.7-6.1-4-10.2-4H519.3c-4.1 0-7.6 1.3-10.2 4-2.7 2.7-4 6.1-4 10.2v85.7c0 4.1 1.3 7.6 4 10.2 2.7 2.7 6.1 4 10.2 4h114.3c4.1 0 7.6-1.3 10.2-4 2.7-2.7 4-6 4-10.2z m85.8-228.6v-85.7c0-4.1-1.3-7.6-4-10.2-2.7-2.7-6.1-4-10.2-4h-200c-4.1 0-7.6 1.3-10.2 4-2.7 2.7-4 6.1-4 10.2v85.7c0 4.1 1.3 7.6 4 10.2 2.7 2.7 6.1 4 10.2 4h200c4.1 0 7.6-1.3 10.2-4 2.6-2.6 4-6 4-10.2z m85.7-228.5v-85.7c0-4.1-1.3-7.6-4-10.2-2.7-2.7-6.1-4-10.2-4H519.3c-4.1 0-7.6 1.3-10.2 4-2.7 2.7-4 6.1-4 10.2v85.7c0 4.1 1.3 7.6 4 10.2 2.7 2.7 6.1 4 10.2 4H805c4.1 0 7.6-1.3 10.2-4 2.8-2.6 4.1-6.1 4.1-10.2zM905 84v-85.7c0-4.1-1.3-7.6-4-10.2-2.7-2.7-6.1-4-10.2-4H519.3c-4.1 0-7.6 1.3-10.2 4-2.7 2.7-4 6.1-4 10.2V84c0 4.1 1.3 7.6 4 10.2 2.7 2.7 6.1 4 10.2 4h371.4c4.1 0 7.6-1.3 10.2-4 2.8-2.6 4.1-6 4.1-10.2z"  horiz-adv-x="1024" />

    
    <glyph glyph-name="shangyi" unicode="&#59317;" d="M736 476.8l-227.2 246.4c-6.4 6.4-16 9.6-22.4 9.6-9.6 0-16-3.2-22.4-9.6l-227.2-246.4c-12.8-12.8-9.6-32 3.2-44.8s32-9.6 44.8 3.2l172.8 185.6v-544c0-16 12.8-32 32-32 16 0 32 12.8 32 32V617.6l169.6-185.6c6.4-6.4 16-9.6 22.4-9.6 6.4 0 16 3.2 22.4 9.6 12.8 12.8 12.8 32 0 44.8z"  horiz-adv-x="1024" />

    
    <glyph glyph-name="xiayi" unicode="&#59318;" d="M736 300.8l-227.2-246.4c-6.4-6.4-16-9.6-22.4-9.6-9.6 0-16 3.2-22.4 9.6l-227.2 246.4c-12.8 12.8-9.6 32 3.2 44.8s32 9.6 44.8-3.2l172.8-185.6v544c0 16 12.8 32 32 32 16 0 32-12.8 32-32V160l169.6 185.6c6.4 6.4 16 9.6 22.4 9.6 6.4 0 16-3.2 22.4-9.6 12.8-9.6 12.8-28.8 0-44.8z"  horiz-adv-x="1024" />

    
    <glyph glyph-name="xinxi" unicode="&#58915;" d="M512 117.44000000000005l70.4 93.76A32 32 0 0 0 608 224h224a32 32 0 0 1 32 32V640a32 32 0 0 1-32 32H192a32 32 0 0 1-32-32v-384a32 32 0 0 1 32-32h224a32 32 0 0 0 25.6-12.8zM192 160a96 96 0 0 0-96 96V640a96 96 0 0 0 96 96h640a96 96 0 0 0 96-96v-384a96 96 0 0 0-96-96H624l-86.4-115.2a32 32 0 0 0-51.2 0L400 160zM320 480a32 32 0 0 0 0 64h384a32 32 0 0 0 0-64z m0-128a32 32 0 0 0 0 64h256a32 32 0 0 0 0-64z"  horiz-adv-x="1024" />

    
    <glyph glyph-name="shangsheng" unicode="&#58886;" d="M800.9 518.5c-9.4-9.4-24.6-9.3-33.9 0.1L536.1 750.3v-790.7c0-13.3-10.7-24-24-24s-24 10.7-24 24V749.9L257.6 518.8c-9.4-9.4-24.6-9.4-33.9 0-9.4 9.4-9.4 24.6 0 33.9L495.1 825c4.7 4.7 10.8 7.1 17 7.1 5.2 0 10.3-1.7 14.6-5 1.4-0.9 2.7-1.9 3.9-3.1L801 552.5c9.4-9.4 9.3-24.6-0.1-34z"  horiz-adv-x="1024" />

    
    </font>
</defs>
</svg>
